{"glyphs":{"0":{"ha":983,"x_min":-1,"x_max":783,"o":"m 372 279 l 372 191 q 135 297 233 199 q 29 534 37 395 l 117 534 l 117 518 l 98 518 q 183 345 111 416 q 356 261 255 273 l 356 279 l 372 279 m 29 573 q 135 810 37 712 q 372 916 233 908 l 372 828 l 356 828 l 356 846 q 183 761 256 834 q 98 589 111 688 l 117 589 l 117 573 l 29 573 m 391 0 l 342 152 l 441 152 l 391 0 m 142 873 l 73 805 l -1 945 l 142 873 m 427 279 l 427 261 q 600 345 528 273 q 684 518 672 416 l 665 518 l 665 534 l 753 534 q 648 297 746 395 q 411 191 550 199 l 411 279 l 427 279 m 665 573 l 665 589 l 684 589 q 600 761 671 688 q 427 846 527 834 l 427 828 l 411 828 l 411 916 q 648 810 550 908 q 753 573 746 712 l 665 573 m 783 945 l 710 805 l 641 873 l 783 945 z "},"1":{"ha":1039,"x_min":53,"x_max":938,"o":"m 572 1025 l 572 842 l 511 842 l 510 1025 l 572 1025 m 343 795 l 296 750 l 144 904 l 191 949 l 343 795 m 938 904 l 785 751 l 740 795 l 891 949 l 938 904 m 542 781 q 785 568 771 774 q 907 599 878 599 l 907 538 q 542 170 602 476 l 479 170 q 511 293 479 202 q 296 536 305 324 q 542 781 324 765 m 236 567 l 236 507 l 53 507 l 53 567 l 236 567 m 343 293 l 191 140 l 145 186 l 296 338 l 343 293 z "},"2":{"ha":1083,"x_min":27,"x_max":1016,"o":"m 417 1049 l 340 962 l 245 964 l 338 1049 l 417 1049 m 515 720 l 134 610 q 130 686 130 650 q 197 910 130 834 l 309 910 q 256 789 256 829 q 258 775 256 781 l 487 775 l 515 720 m 500 155 l 549 224 l 622 196 l 608 149 l 500 155 m 677 746 l 662 673 l 1016 813 l 1015 758 l 531 520 l 541 578 l 151 414 l 27 547 l 677 746 m 488 530 l 473 475 l 380 382 l 380 381 q 518 240 380 307 l 470 167 q 201 408 301 240 l 488 530 z "},"3":{"ha":1083,"x_min":84,"x_max":932,"o":"m 100 678 q 305 441 169 475 l 203 306 q 84 678 85 454 l 100 678 m 472 473 l 352 473 l 349 639 q 576 1015 503 739 l 603 1015 q 534 608 588 769 l 532 538 l 472 473 m 780 441 q 915 644 881 475 l 932 644 q 848 340 929 447 l 780 441 m 575 610 q 792 850 711 644 l 814 847 q 734 482 814 644 l 576 526 l 575 610 m 355 390 l 720 390 l 779 271 l 711 203 l 610 203 l 594 222 l 433 222 l 406 203 l 305 203 l 237 237 l 355 390 z "},"4":{"ha":1165,"x_min":64,"x_max":1047,"o":"m 600 690 q 498 722 550 722 q 486 721 492 722 q 271 547 300 715 l 326 547 q 486 667 355 656 q 557 646 530 667 l 600 690 m 650 492 l 705 492 q 635 671 705 615 l 594 629 q 650 492 650 587 m 471 341 q 320 492 339 349 l 266 492 q 471 287 291 289 l 471 341 m 157 435 l 64 446 l 68 501 l 151 513 q 153 566 151 541 l 85 587 l 99 655 l 170 646 q 197 703 181 681 l 144 763 l 182 812 l 260 770 q 330 808 283 791 l 329 937 q 157 876 247 932 l 152 919 q 483 1013 290 1010 l 503 829 q 515 830 509 830 q 537 828 527 830 l 635 985 q 824 892 745 972 l 738 736 q 747 726 743 731 l 921 814 q 1021 621 987 749 l 808 536 q 810 501 810 520 l 1040 503 q 1047 395 1045 465 q 1022 288 1040 345 l 736 317 l 652 317 q 568 264 622 271 l 545 82 l 467 82 l 454 173 q 399 182 425 176 l 347 114 l 290 140 l 317 208 q 279 231 296 218 l 215 176 l 162 227 l 219 287 q 197 319 208 302 l 119 293 l 92 357 l 166 397 q 157 435 161 416 z "},"5":{"ha":1356,"x_min":0,"x_max":1122,"o":"m 566 949 q 1072 768 874 949 q 1122 703 1122 710 l 1112 699 l 10 699 q 0 709 0 699 q 566 949 187 949 m 408 605 l 433 600 l 689 600 l 713 605 q 718 600 713 600 q 674 507 686 513 l 448 507 q 404 600 435 513 q 408 605 408 600 m 989 413 l 994 404 l 994 349 q 984 340 994 340 l 138 340 q 128 349 128 340 l 128 404 q 142 413 128 413 l 989 413 m 531 241 l 590 241 q 812 5 614 222 l 812 0 l 310 0 l 310 5 q 531 241 507 222 z "},"6":{"ha":1119,"x_min":0,"x_max":1017,"o":"m 136 0 q 0 136 0 0 l 0 882 q 136 1017 0 1017 l 882 1017 q 1017 882 1017 1017 l 1017 136 q 882 0 1017 0 l 136 0 m 882 17 q 1000 136 1000 17 l 1000 882 q 882 1000 1000 1000 l 136 1000 q 17 882 18 1000 l 17 136 q 136 17 18 17 l 882 17 z "},"7":{"ha":1119,"x_min":0,"x_max":1017,"o":"m 136 0 q 0 136 0 0 l 0 882 q 136 1017 0 1017 l 882 1017 q 1017 882 1017 1017 l 1017 136 q 882 0 1017 0 l 136 0 m 882 17 q 1000 136 1000 17 l 1000 882 q 882 1000 1000 1000 l 136 1000 q 17 882 18 1000 l 17 136 q 136 17 18 17 l 882 17 z "},"8":{"ha":1119,"x_min":0,"x_max":1017,"o":"m 136 0 q 0 136 0 0 l 0 882 q 136 1017 0 1017 l 882 1017 q 1017 882 1017 1017 l 1017 136 q 882 0 1017 0 l 136 0 m 882 17 q 1000 136 1000 17 l 1000 882 q 882 1000 1000 1000 l 136 1000 q 17 882 18 1000 l 17 136 q 136 17 18 17 l 882 17 z "},"9":{"ha":1119,"x_min":0,"x_max":1017,"o":"m 136 0 q 0 136 0 0 l 0 882 q 136 1017 0 1017 l 882 1017 q 1017 882 1017 1017 l 1017 136 q 882 0 1017 0 l 136 0 m 882 17 q 1000 136 1000 17 l 1000 882 q 882 1000 1000 1000 l 136 1000 q 17 882 18 1000 l 17 136 q 136 17 18 17 l 882 17 z "},"\u0000":{"ha":0,"x_min":0,"x_max":0,"o":""}," ":{"ha":345,"x_min":0,"x_max":0,"o":""},"!":{"ha":1119,"x_min":0,"x_max":1017,"o":"m 136 0 q 0 136 0 0 l 0 882 q 136 1017 0 1017 l 882 1017 q 1017 882 1017 1017 l 1017 136 q 882 0 1017 0 l 136 0 m 882 17 q 1000 136 1000 17 l 1000 882 q 882 1000 1000 1000 l 136 1000 q 17 882 18 1000 l 17 136 q 136 17 18 17 l 882 17 z "},"\"":{"ha":1119,"x_min":0,"x_max":1017,"o":"m 136 0 q 0 136 0 0 l 0 882 q 136 1017 0 1017 l 882 1017 q 1017 882 1017 1017 l 1017 136 q 882 0 1017 0 l 136 0 m 882 17 q 1000 136 1000 17 l 1000 882 q 882 1000 1000 1000 l 136 1000 q 17 882 18 1000 l 17 136 q 136 17 18 17 l 882 17 z "},"#":{"ha":1119,"x_min":0,"x_max":1017,"o":"m 136 0 q 0 136 0 0 l 0 882 q 136 1017 0 1017 l 882 1017 q 1017 882 1017 1017 l 1017 136 q 882 0 1017 0 l 136 0 m 882 17 q 1000 136 1000 17 l 1000 882 q 882 1000 1000 1000 l 136 1000 q 17 882 18 1000 l 17 136 q 136 17 18 17 l 882 17 z "},"$":{"ha":1119,"x_min":0,"x_max":1017,"o":"m 136 0 q 0 136 0 0 l 0 882 q 136 1017 0 1017 l 882 1017 q 1017 882 1017 1017 l 1017 136 q 882 0 1017 0 l 136 0 m 882 17 q 1000 136 1000 17 l 1000 882 q 882 1000 1000 1000 l 136 1000 q 17 882 18 1000 l 17 136 q 136 17 18 17 l 882 17 z "},"%":{"ha":1119,"x_min":0,"x_max":1017,"o":"m 136 0 q 0 136 0 0 l 0 882 q 136 1017 0 1017 l 882 1017 q 1017 882 1017 1017 l 1017 136 q 882 0 1017 0 l 136 0 m 882 17 q 1000 136 1000 17 l 1000 882 q 882 1000 1000 1000 l 136 1000 q 17 882 18 1000 l 17 136 q 136 17 18 17 l 882 17 z "},"&":{"ha":1119,"x_min":0,"x_max":1017,"o":"m 136 0 q 0 136 0 0 l 0 882 q 136 1017 0 1017 l 882 1017 q 1017 882 1017 1017 l 1017 136 q 882 0 1017 0 l 136 0 m 882 17 q 1000 136 1000 17 l 1000 882 q 882 1000 1000 1000 l 136 1000 q 17 882 18 1000 l 17 136 q 136 17 18 17 l 882 17 z "},"'":{"ha":1119,"x_min":0,"x_max":1017,"o":"m 136 0 q 0 136 0 0 l 0 882 q 136 1017 0 1017 l 882 1017 q 1017 882 1017 1017 l 1017 136 q 882 0 1017 0 l 136 0 m 882 17 q 1000 136 1000 17 l 1000 882 q 882 1000 1000 1000 l 136 1000 q 17 882 18 1000 l 17 136 q 136 17 18 17 l 882 17 z "},"(":{"ha":1119,"x_min":0,"x_max":1017,"o":"m 136 0 q 0 136 0 0 l 0 882 q 136 1017 0 1017 l 882 1017 q 1017 882 1017 1017 l 1017 136 q 882 0 1017 0 l 136 0 m 882 17 q 1000 136 1000 17 l 1000 882 q 882 1000 1000 1000 l 136 1000 q 17 882 18 1000 l 17 136 q 136 17 18 17 l 882 17 z "},")":{"ha":1119,"x_min":0,"x_max":1017,"o":"m 136 0 q 0 136 0 0 l 0 882 q 136 1017 0 1017 l 882 1017 q 1017 882 1017 1017 l 1017 136 q 882 0 1017 0 l 136 0 m 882 17 q 1000 136 1000 17 l 1000 882 q 882 1000 1000 1000 l 136 1000 q 17 882 18 1000 l 17 136 q 136 17 18 17 l 882 17 z "},"*":{"ha":1119,"x_min":0,"x_max":1017,"o":"m 136 0 q 0 136 0 0 l 0 882 q 136 1017 0 1017 l 882 1017 q 1017 882 1017 1017 l 1017 136 q 882 0 1017 0 l 136 0 m 882 17 q 1000 136 1000 17 l 1000 882 q 882 1000 1000 1000 l 136 1000 q 17 882 18 1000 l 17 136 q 136 17 18 17 l 882 17 z "},"+":{"ha":1119,"x_min":0,"x_max":1017,"o":"m 136 0 q 0 136 0 0 l 0 882 q 136 1017 0 1017 l 882 1017 q 1017 882 1017 1017 l 1017 136 q 882 0 1017 0 l 136 0 m 882 17 q 1000 136 1000 17 l 1000 882 q 882 1000 1000 1000 l 136 1000 q 17 882 18 1000 l 17 136 q 136 17 18 17 l 882 17 z "},",":{"ha":1365,"x_min":0,"x_max":1313,"o":"m 1053 1063 l 1313 618 l 1313 613 q 741 0 792 49 l 572 0 q 0 613 477 95 l 0 618 l 258 1063 l 1053 1063 m 190 876 l 439 730 l 651 852 l 662 852 l 876 730 q 1099 860 897 746 q 1123 873 1102 866 l 1123 876 l 1036 1028 l 279 1028 l 190 876 m 448 990 l 507 990 l 513 985 l 513 979 q 477 884 486 884 l 461 884 q 456 892 456 884 l 480 966 l 469 966 l 469 952 l 464 947 q 442 955 444 947 l 442 985 l 448 990 m 562 990 l 564 987 l 564 890 l 559 884 l 543 884 l 537 890 l 537 968 q 526 974 526 968 l 526 979 q 562 990 526 988 m 602 990 l 627 990 q 646 979 642 990 l 646 947 l 640 939 q 651 917 651 939 l 651 903 q 640 884 651 889 l 591 884 q 581 914 581 887 q 605 922 589 921 l 608 909 l 627 909 l 627 911 l 624 925 l 605 925 l 600 930 l 600 944 q 621 952 600 951 l 621 966 l 610 966 q 605 955 610 955 q 583 963 583 958 l 583 971 q 602 990 583 990 m 684 990 l 722 990 q 738 982 738 989 l 738 944 l 735 941 l 741 925 l 741 901 q 732 884 741 886 l 681 884 l 670 895 l 670 922 q 678 941 670 931 l 673 947 l 673 979 l 684 990 m 849 990 l 852 987 l 852 890 l 846 884 l 833 884 l 827 890 l 827 968 q 817 974 817 968 l 817 979 q 849 990 817 988 m 903 990 l 906 987 l 906 890 l 901 884 l 887 884 l 882 890 l 882 968 q 868 974 868 968 l 868 979 q 903 990 868 987 m 952 990 l 979 990 l 985 985 l 985 930 q 998 925 998 930 l 998 911 q 985 906 998 906 l 985 887 l 979 882 l 966 882 l 960 887 l 960 906 l 928 906 l 922 911 l 922 922 q 952 990 945 990 m 323 971 l 363 971 l 369 966 l 369 952 l 363 947 l 345 947 l 345 939 l 358 939 l 363 933 l 363 922 l 358 917 l 345 917 l 345 909 l 366 909 l 372 903 l 372 890 l 366 884 l 323 884 l 317 890 l 317 966 l 323 971 m 697 966 l 697 949 l 713 949 l 713 966 l 697 966 m 958 952 l 952 930 l 960 930 l 960 952 l 958 952 m 393 944 l 423 944 l 429 939 l 429 925 l 423 920 l 393 920 l 388 925 l 388 939 l 393 944 m 768 944 l 798 944 l 803 939 l 803 925 l 798 920 l 768 920 l 762 925 l 762 939 l 768 944 m 694 925 l 694 909 l 716 909 l 716 925 l 694 925 m 171 844 q 43 618 43 626 l 43 613 q 526 98 48 613 l 586 35 l 640 35 l 640 323 q 450 434 622 338 l 423 453 l 423 697 q 171 844 347 747 m 890 697 l 890 453 l 673 326 l 673 35 l 727 35 l 1270 618 q 1175 787 1270 626 q 1139 844 1149 835 q 890 697 895 704 m 448 703 l 448 464 l 654 347 l 659 347 l 865 464 l 865 703 l 656 825 l 448 703 m 656 808 q 849 694 840 705 l 849 477 q 757 418 847 464 q 654 361 663 361 l 464 475 l 464 694 q 656 808 473 705 m 472 694 l 472 491 l 475 491 l 648 589 l 648 792 l 646 792 q 472 694 506 709 m 665 792 l 665 586 q 643 570 654 570 l 643 567 l 700 567 q 746 540 726 561 l 746 537 l 738 529 l 575 529 l 559 521 l 559 518 l 784 518 q 830 491 800 518 l 830 488 l 822 480 l 496 480 q 480 472 480 479 l 494 469 l 819 469 q 841 480 834 469 l 841 689 q 665 792 822 705 m 206 716 l 288 716 q 307 665 304 716 l 304 662 l 269 662 q 263 678 263 662 l 222 678 l 222 648 l 274 648 q 307 621 307 648 l 307 567 q 263 540 307 540 l 222 540 q 179 575 179 540 l 179 591 l 184 597 l 217 597 q 222 581 222 597 l 266 581 l 266 583 l 263 600 l 266 610 l 231 610 q 182 646 182 610 l 182 684 q 206 716 182 716 m 1012 716 l 1128 716 l 1134 711 l 1134 692 q 1072 540 1084 549 l 1034 540 l 1028 545 l 1080 678 l 1012 678 l 1006 684 l 1006 711 l 1012 716 m 586 543 l 586 540 l 727 540 l 727 543 l 689 559 l 624 559 l 586 543 m 496 491 l 496 488 l 817 488 l 817 491 l 773 510 l 540 510 l 496 491 m 510 458 q 545 439 534 439 l 770 439 l 808 456 l 808 458 l 510 458 m 385 431 l 388 429 l 388 426 l 326 361 l 320 366 l 320 393 q 298 407 311 393 q 385 431 298 415 m 562 429 l 562 426 l 572 420 l 741 420 l 751 426 l 751 429 l 562 429 m 928 431 l 1012 410 l 1012 404 q 990 391 1002 404 l 990 366 l 987 366 l 925 429 l 928 431 m 591 410 l 591 407 l 629 391 l 684 391 l 722 407 l 722 410 l 591 410 m 646 380 l 646 377 l 656 372 l 667 377 l 667 380 l 646 380 m 524 296 l 586 296 q 610 258 610 296 q 575 247 610 252 l 572 260 l 543 260 l 543 182 l 572 182 l 572 203 l 559 203 l 553 209 l 553 231 l 559 236 l 605 236 l 610 231 l 610 179 q 570 146 610 146 l 556 146 q 507 168 507 146 l 507 271 q 524 296 507 286 m 705 293 l 770 293 q 792 252 792 293 l 792 247 q 776 206 792 214 l 800 149 l 773 149 q 743 203 767 150 l 732 203 l 732 155 l 727 149 l 705 149 l 700 155 l 700 288 l 705 293 m 732 263 l 732 233 l 746 233 l 760 236 l 760 258 l 754 263 l 732 263 z "},"-":{"ha":1119,"x_min":0,"x_max":1017,"o":"m 136 0 q 0 136 0 0 l 0 882 q 136 1017 0 1017 l 882 1017 q 1017 882 1017 1017 l 1017 136 q 882 0 1017 0 l 136 0 m 882 17 q 1000 136 1000 17 l 1000 882 q 882 1000 1000 1000 l 136 1000 q 17 882 18 1000 l 17 136 q 136 17 18 17 l 882 17 z "},".":{"ha":1662,"x_min":0,"x_max":1471,"o":"m 14 948 l 347 701 l 319 927 l 326 927 q 503 728 503 785 l 509 574 l 736 410 l 962 580 q 1012 800 962 800 q 1145 927 1114 913 l 1154 927 l 1154 920 l 1125 701 l 1464 948 l 1471 941 q 1372 679 1398 679 q 1097 488 1324 660 l 1089 446 l 1097 446 l 1366 630 l 1372 630 l 1372 623 q 1280 424 1331 424 q 1068 262 1068 274 l 1061 227 l 1068 227 l 1295 382 l 1301 375 q 1210 177 1257 177 q 1033 43 1036 58 l 1033 0 l 1019 0 l 927 99 l 927 170 l 736 43 l 545 170 l 545 99 l 452 0 l 438 0 l 438 43 q 220 205 400 84 l 170 375 l 177 382 l 184 382 l 404 227 l 410 227 q 311 333 410 290 q 135 495 135 451 q 99 630 99 595 l 106 630 l 375 446 l 382 446 q 276 559 382 509 q 71 714 71 701 l 0 941 l 7 948 l 14 948 m 736 792 l 913 616 l 913 608 q 821 545 844 545 l 736 623 l 644 545 l 559 608 l 559 616 l 736 792 m 523 389 l 523 382 q 602 297 523 334 l 736 205 q 941 354 939 334 l 948 389 l 743 248 l 728 248 l 523 389 z "},"/":{"ha":1119,"x_min":0,"x_max":1017,"o":"m 136 0 q 0 136 0 0 l 0 882 q 136 1017 0 1017 l 882 1017 q 1017 882 1017 1017 l 1017 136 q 882 0 1017 0 l 136 0 m 882 17 q 1000 136 1000 17 l 1000 882 q 882 1000 1000 1000 l 136 1000 q 17 882 18 1000 l 17 136 q 136 17 18 17 l 882 17 z "},":":{"ha":1085,"x_min":0,"x_max":884,"o":"m 448 947 q 736 831 603 947 l 858 900 l 858 895 l 862 715 l 862 652 q 741 479 862 610 l 689 410 l 689 115 q 664 32 684 38 l 442 216 l 221 32 q 195 115 200 38 l 195 410 q 21 642 21 617 l 21 715 l 26 900 l 32 900 q 159 831 139 831 q 448 947 264 947 m 100 711 q 85 700 85 711 l 236 520 l 241 520 l 421 695 l 421 700 l 416 705 l 100 711 m 474 705 l 469 705 l 463 700 l 642 520 l 647 520 l 800 700 l 800 705 l 794 711 l 474 705 m 11 537 l 147 385 l 147 147 l 142 147 q 0 452 0 256 l 0 526 l 11 537 m 879 537 l 884 531 l 884 452 q 741 147 884 256 l 736 147 l 736 385 l 879 537 m 311 474 l 305 469 q 442 311 421 326 l 579 463 l 568 474 l 311 474 m 421 163 l 463 163 q 573 32 573 58 l 573 21 q 437 0 511 0 q 311 32 311 6 q 421 163 311 58 z "},";":{"ha":1119,"x_min":0,"x_max":930,"o":"m 59 949 l 67 949 q 371 741 86 949 l 465 674 q 859 949 741 876 l 870 949 q 804 760 836 810 q 559 540 659 701 q 654 591 654 555 q 725 677 690 669 q 792 717 775 717 l 800 717 l 811 705 l 741 473 l 744 473 l 878 508 q 913 401 913 508 q 930 279 930 335 q 839 83 930 122 l 787 119 l 650 7 l 627 0 q 587 16 587 7 l 587 28 l 654 252 l 650 252 q 599 229 616 229 l 591 229 l 578 236 l 528 165 l 516 165 l 508 173 l 508 193 l 535 355 l 532 355 q 465 275 511 347 q 394 355 416 353 l 394 351 l 422 193 l 422 173 l 414 165 l 401 165 l 347 236 l 339 229 l 331 229 q 279 252 313 229 l 275 252 l 275 248 l 342 28 l 342 16 q 303 0 342 7 q 146 119 277 0 l 138 119 q 83 83 104 83 q 0 283 0 132 q 31 500 23 500 l 55 508 l 189 473 l 119 709 l 130 717 l 138 717 q 248 646 159 717 q 303 559 281 559 l 371 540 q 146 748 271 699 q 59 949 111 748 z "},"=":{"ha":1119,"x_min":0,"x_max":1017,"o":"m 136 0 q 0 136 0 0 l 0 882 q 136 1017 0 1017 l 882 1017 q 1017 882 1017 1017 l 1017 136 q 882 0 1017 0 l 136 0 m 882 17 q 1000 136 1000 17 l 1000 882 q 882 1000 1000 1000 l 136 1000 q 17 882 18 1000 l 17 136 q 136 17 18 17 l 882 17 z "},">":{"ha":1119,"x_min":0,"x_max":1017,"o":"m 136 0 q 0 136 0 0 l 0 882 q 136 1017 0 1017 l 882 1017 q 1017 882 1017 1017 l 1017 136 q 882 0 1017 0 l 136 0 m 882 17 q 1000 136 1000 17 l 1000 882 q 882 1000 1000 1000 l 136 1000 q 17 882 18 1000 l 17 136 q 136 17 18 17 l 882 17 z "},"?":{"ha":1119,"x_min":0,"x_max":1017,"o":"m 136 0 q 0 136 0 0 l 0 882 q 136 1017 0 1017 l 882 1017 q 1017 882 1017 1017 l 1017 136 q 882 0 1017 0 l 136 0 m 882 17 q 1000 136 1000 17 l 1000 882 q 882 1000 1000 1000 l 136 1000 q 17 882 18 1000 l 17 136 q 136 17 18 17 l 882 17 z "},"@":{"ha":916,"x_min":0,"x_max":783,"o":"m 458 1119 l 464 1114 l 469 1114 q 437 1067 450 1069 l 361 1067 q 330 1114 349 1069 l 334 1119 l 458 1119 m 361 1057 l 433 1057 l 444 1046 l 444 897 l 433 886 l 361 886 l 351 897 l 351 1046 l 361 1057 m 407 871 q 659 810 541 871 l 659 805 q 583 723 639 723 q 392 646 507 684 q 149 753 171 733 l 129 814 q 407 871 239 871 m 5 841 l 41 835 l 93 835 q 134 727 104 835 q 299 646 299 669 l 314 501 l 258 501 l 159 496 q 36 609 36 568 l 0 835 l 5 841 m 695 831 l 773 831 l 783 820 q 722 557 749 557 l 633 496 l 505 496 q 473 511 478 496 q 530 675 482 675 q 664 758 664 717 q 695 831 685 831 m 309 779 q 392 727 318 760 q 479 768 408 727 l 479 779 l 427 795 l 355 795 l 309 779 m 83 712 l 83 696 q 248 619 115 669 l 248 635 q 83 712 224 656 m 541 640 l 541 614 l 706 691 l 706 712 l 541 640 m 93 646 l 93 629 q 263 547 93 616 l 263 553 q 170 609 263 576 l 93 646 m 324 646 l 330 646 l 401 619 l 464 646 l 469 640 l 437 475 l 444 470 l 444 460 l 437 439 l 444 418 l 437 418 l 444 413 l 444 310 q 469 42 444 216 l 401 -117 l 386 -117 q 319 57 319 39 q 345 331 345 204 l 345 465 l 324 646 m 525 547 l 530 547 q 690 625 690 611 l 695 640 l 690 640 q 525 547 525 580 m 52 542 q 129 424 129 507 q 222 367 219 378 l 222 109 q 66 187 66 154 l 46 536 l 52 542 m 726 536 l 736 526 q 701 166 715 166 l 566 109 l 562 109 l 562 320 q 608 393 562 393 q 664 449 664 425 q 726 536 664 501 m 319 428 l 324 424 l 324 269 q 288 73 310 73 l 242 98 l 242 367 q 319 428 266 395 m 473 428 l 541 372 l 541 98 q 490 73 541 87 q 464 284 464 198 l 464 418 l 473 428 z "},"A":{"ha":1119,"x_min":0,"x_max":916,"o":"m 617 678 l 610 644 l 814 729 l 821 763 l 617 678 m 112 682 l 119 648 l 322 563 l 315 597 l 112 682 m 95 763 l 102 729 l 305 644 l 298 678 l 95 763 m 600 597 l 593 563 l 797 648 l 804 682 l 600 597 m 831 153 l 661 85 l 661 373 l 763 441 l 780 526 l 848 559 l 831 153 m 119 899 l 146 790 l 339 695 l 373 526 l 186 526 l 54 600 l 0 899 l 119 899 m 458 661 l 543 695 l 509 509 l 509 237 l 407 237 l 407 509 l 373 695 l 458 661 m 68 559 l 136 526 l 153 441 l 254 373 l 254 85 l 85 153 l 68 559 m 543 207 l 543 441 l 627 373 l 627 68 l 583 41 l 549 159 l 366 159 l 332 41 l 288 68 l 288 373 l 373 441 l 373 207 l 543 207 m 529 129 l 563 0 l 353 0 l 387 129 l 529 129 m 475 949 q 763 882 644 949 l 746 814 q 458 695 693 785 q 170 814 222 785 l 153 882 q 441 949 271 949 l 475 949 m 458 780 l 559 838 q 475 865 526 865 l 441 865 q 356 838 390 865 l 458 780 m 916 899 l 861 600 l 729 526 l 543 526 l 576 695 l 770 790 l 797 899 l 916 899 z "},"B":{"ha":1187,"x_min":0,"x_max":1078,"o":"m 572 457 l 597 343 l 538 294 l 480 343 l 506 457 l 572 457 m 612 653 l 621 604 l 538 506 l 457 604 l 466 653 l 612 653 m 591 767 l 609 669 l 468 669 l 486 767 l 591 767 m 572 882 l 589 783 l 488 783 l 506 882 l 572 882 m 614 914 l 630 871 q 758 855 718 865 l 774 882 l 1078 882 l 1002 532 l 1029 516 l 1012 229 l 833 163 l 833 131 q 555 0 702 0 l 522 0 q 244 131 376 0 l 244 163 l 65 229 l 49 516 l 75 532 l 0 882 l 304 882 l 320 855 q 448 871 359 865 l 464 914 l 614 914 m 572 16 q 817 140 719 33 l 817 173 l 996 238 l 1012 506 l 980 522 l 1059 865 l 783 865 l 767 833 l 751 833 q 621 849 702 849 l 604 898 l 473 898 l 457 849 q 326 833 376 849 l 310 833 l 294 865 l 18 865 l 97 522 l 65 506 l 81 238 l 261 173 l 261 140 q 506 16 359 33 l 572 16 m 1029 849 l 947 538 l 882 572 l 930 734 l 800 767 l 833 849 l 1029 849 m 441 833 l 457 833 l 408 604 l 473 522 l 473 506 l 260 506 l 196 718 l 310 751 l 310 800 q 441 833 376 833 m 212 538 l 261 425 l 261 212 l 114 261 l 98 490 l 212 538 m 522 277 l 522 33 q 294 147 408 33 l 294 392 l 522 277 m 245 849 l 277 767 l 147 734 l 196 572 l 130 538 l 49 849 l 245 849 m 767 800 l 767 751 l 882 718 l 817 506 l 604 506 l 604 522 l 670 604 l 621 833 l 637 833 q 767 800 702 833 m 979 490 l 964 261 l 817 212 l 817 425 l 865 538 l 979 490 m 783 392 l 783 147 q 555 33 669 33 l 555 277 l 783 392 z "},"C":{"ha":882,"x_min":0,"x_max":746,"o":"m 713 924 q 621 705 699 846 l 627 695 q 678 627 661 661 q 719 841 712 654 q 713 924 718 872 m 627 593 l 414 549 l 431 431 q 559 509 458 441 q 627 593 593 526 m 719 441 q 684 339 719 380 l 681 339 q 671 431 681 390 q 719 465 677 443 l 719 441 m 650 419 q 661 372 661 419 l 661 369 q 635 301 661 321 l 633 301 l 633 309 q 618 387 633 343 q 650 419 618 389 m 600 369 q 610 323 610 369 l 610 304 q 591 251 610 274 l 588 251 q 568 323 584 287 q 600 369 577 342 m 33 924 q 27 841 28 872 q 68 627 34 654 q 119 695 85 661 l 125 705 q 33 924 47 846 m 119 593 q 186 509 153 526 q 315 431 288 441 l 332 549 l 119 593 m 27 465 q 75 431 68 443 q 65 339 65 390 l 63 339 q 27 441 27 380 l 27 465 m 96 419 q 128 387 128 389 q 113 309 113 343 l 113 301 l 111 301 q 85 369 85 321 l 85 372 q 96 419 85 419 m 146 369 q 178 323 169 342 q 158 251 162 287 l 155 251 q 136 304 136 274 l 136 323 q 146 369 136 369 m 423 814 q 517 797 458 814 q 600 756 576 780 q 722 983 605 761 l 729 983 q 746 678 746 814 l 746 645 q 729 526 746 559 q 644 475 661 492 q 536 332 559 407 q 559 170 559 220 l 559 153 q 535 7 559 85 l 526 0 q 492 203 526 186 q 373 221 475 220 q 254 203 271 220 q 220 0 220 186 l 211 7 q 186 153 186 85 l 186 170 q 210 332 186 220 q 102 475 186 407 q 17 526 85 492 q 0 645 0 559 l 0 678 q 17 983 0 814 l 24 983 q 146 756 141 761 q 229 797 170 780 q 323 814 288 814 l 423 814 z "},"D":{"ha":916,"x_min":0,"x_max":696,"o":"m 696 884 q 665 680 696 819 q 618 535 655 636 q 574 391 583 442 q 573 387 573 389 q 612 351 573 364 q 669 296 654 327 q 684 214 684 266 q 366 1 684 51 l 330 0 q 216 22 262 11 q 81 86 135 44 q 12 213 12 140 q 84 350 12 312 q 113 363 111 361 q 123 382 123 370 q 123 390 123 387 q 78 541 113 446 q 31 679 38 651 q 0 886 0 819 q 28 947 0 947 q 60 930 42 947 q 184 739 135 859 q 287 432 246 591 l 330 438 l 366 439 l 410 433 q 512 741 450 591 q 636 930 562 861 q 669 948 654 948 q 696 884 696 948 m 532 238 l 532 254 q 512 310 532 286 q 466 331 494 331 q 458 330 463 331 q 405 310 420 326 q 387 256 391 294 l 387 237 q 458 264 412 262 l 465 264 q 532 238 500 264 m 529 215 q 466 248 500 248 q 458 247 463 248 q 390 213 417 243 q 457 153 405 153 q 529 215 516 153 m 311 254 q 292 310 306 294 q 238 330 277 325 q 231 330 234 330 q 185 309 203 330 q 164 253 164 286 l 164 238 q 232 263 197 263 l 238 263 q 310 237 284 260 q 311 254 311 248 m 454 104 l 450 115 q 377 97 410 97 q 363 98 370 97 l 334 96 l 328 96 q 248 114 288 96 l 242 102 q 328 80 282 80 l 337 80 l 359 81 q 454 104 420 84 m 307 212 q 238 246 281 242 q 230 247 234 247 q 168 214 197 247 q 239 151 182 151 q 307 212 292 151 z "},"E":{"ha":949,"x_min":0,"x_max":797,"o":"m 106 465 q 164 589 113 526 q 271 681 210 645 q 397 720 341 720 q 543 674 472 718 q 650 567 608 634 q 692 465 690 505 q 471 376 586 456 q 397 303 418 340 q 106 465 279 425 m 581 720 q 602 671 596 716 q 608 650 607 652 q 529 720 583 692 l 595 996 q 750 794 696 935 q 797 539 797 675 q 789 442 797 489 q 615 237 743 429 q 533 110 562 158 q 463 -20 488 34 q 469 54 469 9 q 452 236 469 167 q 432 280 443 273 q 636 423 477 336 q 724 465 701 458 q 684 574 724 496 q 659 612 669 605 q 674 709 674 655 q 643 873 674 797 q 627 904 631 900 l 581 720 m 216 720 l 170 904 q 138 813 155 900 q 123 709 123 744 q 138 612 123 655 q 86 509 116 596 q 73 465 73 472 q 284 347 139 446 q 366 280 346 306 q 330 54 330 254 q 334 -20 330 9 q 184 235 304 54 q 7 442 54 431 q 0 539 0 489 q 48 794 0 673 q 203 996 104 936 l 269 720 q 191 650 215 692 q 198 690 195 669 q 216 720 205 718 z "},"F":{"ha":1118,"x_min":-1,"x_max":908,"o":"m 454 769 q 536 789 501 769 q 572 834 572 808 q 548 859 572 853 q 454 863 529 863 q 359 859 378 863 q 336 834 336 853 q 371 789 336 808 q 454 769 406 769 m 547 949 q 749 890 749 949 q 648 741 749 826 q 454 652 544 652 q 258 741 363 652 q 158 890 158 826 q 360 949 158 949 l 547 949 m 454 338 q 283 368 349 338 q 224 429 224 394 q 319 387 275 387 l 310 433 q 278 446 305 435 q 232 468 250 458 q 170 532 172 499 q 302 468 208 498 l 292 518 q 254 536 285 522 q 203 560 222 550 q 139 628 139 595 q 185 680 139 680 q 298 617 203 680 q 454 555 392 555 q 609 617 515 555 q 722 680 703 680 q 768 628 768 680 q 704 560 768 595 l 652 536 q 615 518 622 522 l 606 468 q 737 532 699 498 q 675 468 735 499 q 629 446 658 458 q 597 433 602 435 l 588 387 q 683 429 632 387 q 623 368 683 394 q 454 338 557 338 m 454 252 q 415 239 441 252 q 375 225 388 225 q 272 338 347 225 q 454 304 351 304 q 635 338 556 304 q 532 225 560 225 q 492 239 519 225 q 454 252 466 252 m 422 0 q 248 168 345 0 q 130 445 167 307 l 174 449 q 379 194 309 194 q 419 205 399 194 q 454 217 439 217 q 488 205 467 217 q 528 194 508 194 q 733 449 597 194 l 778 445 q 660 168 741 307 q 485 0 562 0 l 422 0 m -1 821 q 97 888 45 846 q 181 749 141 802 q 111 643 115 718 l 111 632 q 131 563 111 598 l 101 543 q 64 628 64 543 l 68 681 q -1 821 68 743 m 908 821 q 839 681 839 743 q 841 652 839 670 l 843 628 q 806 543 843 543 l 777 563 q 797 632 797 598 l 797 643 q 726 749 793 718 q 810 888 766 802 q 908 821 862 846 z "},"G":{"ha":1153,"x_min":0,"x_max":975,"o":"m 487 949 q 525 944 502 944 q 548 945 536 944 q 557 945 552 945 q 758 862 644 945 q 920 711 860 787 q 967 549 963 656 q 974 382 970 455 q 975 372 975 377 q 911 192 975 296 q 768 62 842 81 q 456 -1 555 -1 l 453 -1 q 383 15 442 0 q 322 28 329 28 l 321 28 q 314 27 318 27 q 197 94 285 27 q 94 202 96 170 l 47 311 q 0 484 0 417 q 20 604 0 528 q 60 720 38 672 q 205 871 90 783 q 340 927 250 905 q 487 949 418 947 m 490 926 q 266 868 391 913 q 158 785 202 844 q 66 685 128 745 q 31 466 31 596 q 64 328 31 397 l 131 199 q 211 117 143 161 q 283 71 235 102 q 389 38 300 52 q 507 26 463 26 q 539 28 528 26 q 655 68 557 32 q 724 87 674 77 q 791 109 769 98 q 854 174 819 123 q 907 253 882 213 q 928 338 928 269 q 949 496 928 418 q 953 513 953 504 q 923 652 953 564 q 824 766 907 697 l 718 854 q 490 926 651 923 m 450 737 q 475 840 460 823 q 498 854 489 854 l 509 854 q 648 848 559 854 q 791 766 714 833 q 887 635 867 699 q 907 473 907 572 q 868 328 907 369 q 833 267 858 315 q 808 227 815 227 l 807 227 q 802 227 804 227 q 741 220 785 227 q 616 143 652 143 q 590 149 595 143 q 496 182 572 165 q 395 198 431 198 q 378 252 389 218 q 403 257 381 257 q 427 212 410 239 q 453 205 431 208 q 465 204 460 204 q 475 206 475 204 q 483 228 483 214 l 483 233 q 473 257 481 252 q 511 258 492 258 q 696 244 595 258 q 618 267 686 252 q 453 287 517 287 q 345 264 389 287 q 289 178 289 236 q 325 90 289 133 q 313 89 319 89 q 220 141 254 89 l 178 208 q 159 257 166 214 l 151 297 q 114 378 138 317 q 91 456 91 435 l 91 458 q 113 563 96 517 q 158 486 127 526 q 224 436 195 436 q 238 441 231 436 q 293 480 271 480 l 296 480 q 330 495 308 480 q 355 511 353 511 l 355 511 q 392 562 364 511 q 423 614 421 614 q 482 616 444 614 q 541 619 520 619 q 595 610 589 619 q 617 606 597 606 q 656 629 635 606 q 676 664 676 648 q 675 669 676 666 q 668 713 671 686 q 619 737 661 737 q 465 724 570 737 l 450 737 m 465 564 l 417 543 l 397 517 l 391 502 l 360 467 l 366 452 l 395 440 l 412 467 l 464 467 l 492 483 l 465 564 m 113 669 q 217 664 181 664 q 257 669 254 664 q 422 696 264 677 l 595 717 q 618 718 614 718 q 656 667 656 718 q 638 633 656 634 q 577 636 640 634 l 528 638 q 478 639 499 639 q 431 637 444 639 q 238 615 301 615 q 158 631 229 615 q 79 661 79 650 l 79 662 q 113 669 83 667 m 409 274 l 459 274 l 471 216 q 431 229 454 216 q 409 274 422 239 m 361 258 l 388 193 q 403 171 389 184 l 407 165 q 325 208 389 165 q 319 223 319 211 q 361 258 319 235 m 349 179 q 307 153 311 153 l 306 153 q 301 176 301 158 q 311 208 301 193 q 349 179 314 202 m 214 286 l 217 290 l 229 301 l 217 307 l 191 285 l 191 257 l 210 233 l 211 254 l 214 268 l 214 286 z "},"H":{"ha":1017,"x_min":27,"x_max":924,"o":"m 377 578 q 199 625 279 608 q 102 637 137 637 q 62 623 66 637 q 61 619 61 621 q 167 534 61 592 q 252 491 206 513 q 376 545 309 519 q 377 578 376 562 m 375 439 l 375 509 q 290 474 330 492 q 375 439 330 456 m 577 405 q 576 368 576 386 q 753 321 673 337 q 850 308 816 308 q 890 321 886 308 q 891 326 891 323 q 785 411 891 353 q 694 456 744 433 q 577 405 640 430 m 543 392 q 524 385 534 388 q 543 378 533 381 l 543 392 m 578 441 q 656 474 619 458 q 578 507 619 490 l 578 441 m 541 343 q 473 366 508 354 q 411 346 441 355 q 428 163 416 244 q 476 34 448 34 q 524 163 504 34 q 541 343 536 243 m 410 380 q 422 385 416 382 q 410 389 416 387 l 410 380 m 410 567 q 408 475 408 523 q 409 425 408 450 q 453 409 431 417 q 473 402 463 406 q 498 411 485 406 q 543 428 522 420 q 544 475 544 451 l 544 520 q 524 787 541 673 q 476 916 504 916 q 428 787 448 916 q 410 568 414 691 l 410 567 m 652 603 q 576 581 616 593 q 577 543 576 562 q 695 492 640 517 q 784 536 743 513 q 890 621 890 594 q 889 625 890 623 q 848 639 884 639 q 751 627 814 639 q 713 618 732 623 q 704 600 711 608 q 680 590 694 590 q 656 600 665 590 q 652 603 654 602 m 680 642 q 668 637 673 642 q 663 625 663 632 q 668 613 663 618 q 680 608 673 608 q 691 613 686 608 q 696 625 696 618 q 691 637 696 632 q 680 642 686 642 m 245 302 q 184 292 214 296 q 104 286 138 286 q 28 312 39 286 q 27 321 27 316 q 135 427 27 360 q 217 474 172 451 q 136 520 173 496 q 28 626 28 587 q 30 635 28 631 q 107 661 40 661 q 186 655 140 661 q 378 612 273 643 q 404 810 386 723 q 476 949 434 949 q 548 810 518 949 q 574 614 567 724 q 647 634 612 625 q 656 648 650 642 q 680 658 665 658 q 704 648 694 658 q 705 647 704 648 q 766 657 736 653 q 844 663 812 663 q 921 637 911 663 q 922 628 922 633 q 815 522 922 589 q 730 474 776 497 q 817 425 777 450 q 924 319 924 358 q 922 310 924 314 q 847 283 913 283 q 767 290 814 283 q 574 334 679 302 q 548 139 567 225 q 476 0 518 0 q 404 139 434 0 q 378 336 386 226 q 374 334 376 335 l 374 332 q 354 284 374 304 q 307 264 334 264 q 259 285 279 264 q 245 302 250 293 m 239 332 l 239 332 q 259 380 239 360 q 307 400 279 400 q 355 380 334 400 q 366 366 361 374 q 377 370 371 368 q 376 402 376 386 q 252 456 309 429 q 165 413 205 435 q 60 328 60 355 q 60 323 60 326 q 100 310 65 310 q 198 323 135 310 q 239 332 218 327 m 307 382 q 271 368 286 382 q 256 332 256 353 q 271 296 256 311 q 307 281 286 281 q 342 296 328 281 q 357 332 357 311 q 342 368 357 353 q 307 382 328 382 z "},"I":{"ha":1085,"x_min":0,"x_max":886,"o":"m 382 412 l 592 412 l 592 393 l 412 276 l 239 376 l 239 575 l 412 675 l 449 655 l 535 805 l 412 876 l 67 675 l 67 276 l 412 76 l 745 276 l 745 564 l 468 564 l 382 412 m 812 625 l 812 239 l 412 0 l 0 239 l 0 714 l 412 953 l 623 831 l 503 625 l 812 625 m 594 673 l 703 861 l 886 755 l 886 673 l 594 673 z "},"J":{"ha":1051,"x_min":0,"x_max":949,"o":"m 831 526 l 790 498 l 790 451 l 831 424 l 871 451 l 871 498 l 831 526 m 78 498 l 78 451 l 119 424 l 159 451 l 159 498 l 119 526 l 78 498 m 882 400 l 787 400 l 746 441 l 746 509 l 787 549 l 882 549 q 905 492 899 543 l 905 458 q 882 400 899 407 m 498 78 l 526 119 l 498 159 l 451 159 l 424 119 l 451 78 l 498 78 m 509 203 l 549 163 l 549 68 q 492 44 543 51 l 458 44 q 400 68 407 51 l 400 163 l 441 203 l 509 203 m 485 949 q 593 922 543 949 l 593 804 l 804 593 l 905 593 q 949 485 949 543 l 949 465 q 905 356 949 407 l 804 356 l 593 146 l 593 41 q 485 0 543 0 l 465 0 q 356 41 407 0 l 356 146 l 146 356 l 44 356 q 0 465 0 407 l 0 485 q 44 593 0 543 l 146 593 l 356 804 l 356 922 q 465 949 407 949 l 485 949 m 475 17 q 576 54 536 17 l 576 153 l 797 373 l 892 373 q 932 475 932 417 q 892 576 932 532 l 797 576 l 576 797 l 576 909 q 475 932 526 932 q 373 909 424 932 l 373 797 l 153 576 l 58 576 q 17 475 17 532 q 58 373 17 417 l 153 373 l 373 153 l 373 54 q 475 17 414 17 m 475 593 l 543 661 l 729 475 l 526 271 l 526 390 l 610 475 l 543 543 l 475 475 l 407 543 l 339 475 l 424 390 l 424 271 l 220 475 l 407 661 l 475 593 m 498 790 l 526 831 l 498 871 l 451 871 l 424 831 l 451 790 l 498 790 m 492 905 q 549 882 543 899 l 549 787 l 509 746 l 441 746 l 400 787 l 400 882 q 458 905 407 899 l 492 905 m 390 763 l 424 729 l 220 526 l 186 559 l 390 763 m 220 424 l 424 220 l 390 186 l 186 390 l 220 424 m 44 458 l 44 492 q 68 549 51 543 l 163 549 l 203 509 l 203 441 l 163 400 l 68 400 q 44 458 51 407 m 763 559 l 729 526 l 526 729 l 559 763 l 763 559 m 763 390 l 559 186 l 526 220 l 729 424 l 763 390 z "},"K":{"ha":1096,"x_min":22,"x_max":1000,"o":"m 998 517 q 1000 501 1000 504 q 979 460 1000 475 q 929 475 972 460 q 901 523 901 495 l 901 620 q 871 693 891 671 q 802 722 850 715 l 669 741 q 532 841 566 756 l 535 1000 q 566 1037 538 1025 l 779 1014 q 915 927 871 986 q 976 774 951 876 l 998 517 m 973 395 l 973 378 q 907 202 973 233 q 886 196 897 196 q 866 201 877 196 l 834 264 q 868 315 868 287 q 866 328 868 322 q 772 412 853 399 q 712 376 727 397 q 698 317 698 357 l 698 309 q 814 218 715 221 l 827 174 q 831 154 831 161 q 802 121 831 123 l 713 85 q 702 83 708 83 q 657 114 667 83 l 639 278 l 630 441 q 685 479 652 471 l 929 441 q 973 395 963 425 m 585 361 q 586 348 586 354 q 540 267 586 290 l 482 267 q 435 349 435 290 q 435 361 435 355 l 460 684 q 459 692 460 687 q 479 745 472 745 l 511 751 l 541 745 q 544 745 543 745 q 560 715 556 745 l 560 684 l 585 361 m 490 841 q 352 741 456 756 l 220 722 q 151 693 172 715 q 121 620 130 671 l 121 523 q 93 475 121 495 q 43 460 49 460 l 43 460 q 22 501 22 475 q 24 517 22 503 l 45 774 q 107 926 71 876 q 242 1014 151 986 l 454 1037 q 486 1000 482 1025 l 490 841 m 623 210 l 618 75 q 532 14 594 23 l 490 14 q 402 75 428 23 l 399 210 q 441 254 409 246 q 506 212 465 212 q 520 214 512 212 q 579 254 566 214 q 623 210 612 246 m 393 441 l 382 278 l 363 114 q 320 83 353 83 q 308 85 313 83 l 220 121 q 191 154 191 123 q 195 174 191 161 l 208 218 q 324 309 305 221 q 309 376 324 356 q 248 412 294 397 q 182 381 208 406 q 154 315 154 355 q 186 264 154 287 l 155 201 q 135 196 145 196 q 115 202 123 196 q 49 376 49 233 l 49 395 q 93 441 58 425 l 337 479 q 393 441 370 471 z "},"L":{"ha":1131,"x_min":0,"x_max":1125,"o":"m 1125 838 q 1109 790 1125 818 q 1086 745 1088 758 l 1076 614 l 948 539 l 664 539 l 671 661 q 696 699 678 686 q 740 725 718 711 q 895 775 794 750 q 922 813 907 781 l 927 873 q 985 909 951 909 l 989 909 l 1086 901 q 1125 838 1125 886 m 850 871 q 794 816 828 833 q 593 735 634 735 q 567 734 583 735 q 532 735 549 735 q 331 816 490 735 q 275 871 299 832 q 273 899 273 882 q 275 945 273 918 q 328 994 286 973 q 559 1010 419 1010 q 798 994 706 1010 q 819 981 810 989 q 854 911 854 957 q 854 897 854 904 q 850 869 850 869 l 850 871 m 1076 554 q 1084 416 1084 532 q 1069 252 1084 274 q 956 163 1040 212 q 837 109 882 120 q 865 245 865 145 q 863 308 865 274 q 935 336 889 315 q 970 399 964 357 l 964 503 l 1076 554 m 462 539 l 177 539 l 50 614 l 41 745 q 0 838 23 772 q 41 901 1 886 l 136 909 l 140 909 q 198 873 176 909 l 203 813 q 230 775 208 788 q 385 725 332 750 q 429 699 407 711 q 456 661 447 686 l 462 539 m 800 308 q 803 233 803 274 q 765 50 803 87 q 669 13 741 28 q 563 0 608 0 q 435 18 498 0 q 361 50 379 34 q 323 233 323 87 q 326 308 323 274 l 465 349 l 465 265 q 498 214 465 233 q 549 201 523 201 q 563 202 556 201 q 576 201 570 201 q 626 215 603 201 q 661 265 661 233 l 661 349 l 800 308 m 288 109 q 170 163 245 120 q 56 252 83 214 q 41 416 41 274 q 50 554 41 532 l 160 503 l 157 399 q 192 335 160 356 q 264 308 224 313 q 261 240 261 271 q 288 109 261 144 m 1017 743 l 1017 772 l 789 690 l 789 658 l 1017 743 m 1046 669 l 1046 699 l 819 618 l 819 586 l 1046 669 m 559 919 l 451 917 l 452 890 q 566 833 453 841 q 671 888 667 843 l 675 917 l 559 919 m 336 658 l 336 690 l 110 772 l 110 743 l 336 658 m 306 586 l 306 618 l 78 699 l 78 669 l 306 586 m 658 142 l 467 142 q 488 81 469 120 q 567 67 501 67 q 639 83 624 67 q 658 142 654 98 m 558 268 q 562 267 560 267 l 562 267 l 561 267 q 520 287 543 267 l 520 326 q 498 680 520 345 l 558 650 l 558 268 m 568 650 l 627 680 q 606 326 606 345 l 606 287 q 566 267 582 267 l 565 267 l 565 267 q 568 268 566 267 l 568 650 z "},"M":{"ha":1187,"x_min":0,"x_max":996,"o":"m 593 772 q 498 786 547 786 q 406 772 452 786 l 359 833 l 213 723 l 260 661 q 209 496 209 584 l 209 482 l 137 454 l 203 283 l 275 311 q 408 220 328 247 l 408 143 l 589 143 l 589 220 q 722 311 669 247 l 794 283 l 860 454 l 787 482 l 787 496 q 736 661 787 584 l 783 723 l 637 833 l 593 772 m 408 0 l 361 121 q 195 238 261 158 l 63 238 l 0 408 l 100 490 l 100 496 q 163 712 100 614 l 125 838 l 271 949 l 380 876 q 498 894 437 894 q 616 876 559 894 l 726 949 l 871 838 l 833 712 q 897 496 897 614 l 897 490 l 996 408 l 933 238 l 802 238 q 635 121 736 158 l 589 0 l 408 0 z "},"N":{"ha":1187,"x_min":0,"x_max":996,"o":"m 593 772 q 498 786 547 786 q 406 772 452 786 l 359 833 l 213 723 l 260 661 q 209 496 209 584 l 209 482 l 137 454 l 203 283 l 275 311 q 408 220 328 247 l 408 143 l 589 143 l 589 220 q 722 311 669 247 l 794 283 l 860 454 l 787 482 l 787 496 q 736 661 787 584 l 783 723 l 637 833 l 593 772 m 408 0 l 361 121 q 195 238 261 158 l 63 238 l 0 408 l 100 490 l 100 496 q 163 712 100 614 l 125 838 l 271 949 l 380 876 q 498 894 437 894 q 616 876 559 894 l 726 949 l 871 838 l 833 712 q 897 496 897 614 l 897 490 l 996 408 l 933 238 l 802 238 q 635 121 736 158 l 589 0 l 408 0 m 555 571 l 552 557 l 632 591 l 635 604 l 555 571 m 357 572 l 360 559 l 439 526 l 437 539 l 357 572 m 351 604 l 353 591 l 433 557 l 430 571 l 351 604 m 549 539 l 546 526 l 625 559 l 628 572 l 549 539 m 639 365 l 572 338 l 572 452 l 612 478 l 618 511 l 645 524 l 639 365 m 360 657 l 370 614 l 446 577 l 460 511 l 387 511 l 335 541 l 313 657 l 360 657 m 492 564 l 526 577 l 513 505 l 513 398 l 473 398 l 473 505 l 460 577 l 492 564 m 340 524 l 367 511 l 373 478 l 413 452 l 413 338 l 347 365 l 340 524 m 526 387 l 526 478 l 559 452 l 559 332 l 542 321 l 528 368 l 457 368 l 444 321 l 427 332 l 427 452 l 460 478 l 460 387 l 526 387 m 520 356 l 534 305 l 452 305 l 465 356 l 520 356 m 499 677 q 612 650 566 677 l 606 624 q 492 577 585 612 q 380 624 401 612 l 373 650 q 486 677 420 677 l 499 677 m 492 610 l 532 633 q 499 644 519 644 l 486 644 q 453 633 466 644 l 492 610 m 671 657 l 650 541 l 599 511 l 526 511 l 539 577 l 614 614 l 625 657 l 671 657 z "},"O":{"ha":1492,"x_min":0,"x_max":1267,"o":"m 0 641 l 0 825 l 252 642 l 283 389 l 0 641 m 754 154 l 633 0 l 513 154 l 754 154 m 985 389 l 1017 642 l 1267 825 l 1267 641 l 985 389 m 764 730 l 758 703 l 922 771 l 928 799 l 764 730 m 355 733 l 360 705 l 525 637 l 519 665 l 355 733 m 341 799 l 347 771 l 511 703 l 506 730 l 341 799 m 750 665 l 744 637 l 909 705 l 914 733 l 750 665 m 936 305 l 799 250 l 799 484 l 882 538 l 895 607 l 950 634 l 936 305 m 360 908 l 382 821 l 538 744 l 566 607 l 415 607 l 309 667 l 264 908 l 360 908 m 635 716 l 703 744 l 675 593 l 675 374 l 593 374 l 593 593 l 566 744 l 635 716 m 319 634 l 374 607 l 388 538 l 470 484 l 470 250 l 333 305 l 319 634 m 703 349 l 703 538 l 772 484 l 772 237 l 736 215 l 709 311 l 561 311 l 533 215 l 498 237 l 498 484 l 566 538 l 566 349 l 703 349 m 692 286 l 720 182 l 549 182 l 577 286 l 692 286 m 648 949 q 882 895 785 949 l 867 840 q 635 744 825 817 q 401 840 444 817 l 388 895 q 621 949 484 949 l 648 949 m 635 812 l 717 859 q 648 881 690 881 l 621 881 q 552 859 580 881 l 635 812 m 1005 908 l 961 667 l 854 607 l 703 607 l 730 744 l 887 821 l 909 908 l 1005 908 z "},"P":{"ha":1085,"x_min":0,"x_max":983,"o":"m 678 661 l 671 627 l 875 763 l 882 797 l 678 661 m 119 712 l 125 678 l 329 543 l 322 576 l 119 712 m 102 797 l 109 763 l 312 627 l 305 661 l 102 797 m 661 576 l 654 543 l 858 678 l 865 712 l 661 576 m 899 576 l 865 220 l 712 85 l 709 409 l 773 448 l 780 492 l 899 576 m 176 899 l 210 787 q 374 675 374 684 q 407 475 376 671 l 214 509 l 68 610 l 0 916 l 176 899 m 492 606 l 593 668 l 560 458 l 559 237 l 424 237 l 423 458 l 390 668 l 492 606 m 203 492 l 210 448 l 274 409 l 271 85 l 119 220 l 85 576 l 203 492 m 576 220 l 577 458 l 695 407 l 695 68 l 627 17 l 581 153 l 403 153 l 356 17 l 288 68 l 288 407 l 406 458 l 407 220 l 576 220 m 492 136 l 570 136 l 610 0 l 373 0 l 414 136 l 492 136 m 526 949 q 787 899 661 949 l 763 800 l 494 623 l 492 624 l 490 623 l 220 800 l 197 899 q 458 949 322 949 l 526 949 m 492 746 l 594 831 l 389 831 l 492 746 m 983 916 l 916 610 l 770 509 l 576 475 q 610 675 608 671 q 773 787 610 684 l 807 899 l 983 916 z "},"Q":{"ha":1899,"x_min":0,"x_max":1684,"o":"m 1675 949 l 1684 944 q 1679 855 1679 884 l 1679 815 q 1216 552 1237 552 q 1234 686 1234 642 l 1234 690 q 1675 949 1234 694 m 9 944 q 437 699 429 699 q 454 557 437 668 l 446 552 q 5 806 444 559 l 5 851 q 0 940 5 880 l 9 944 m 1675 775 l 1684 770 q 1679 682 1679 711 l 1679 642 q 1181 356 1627 603 l 1181 401 l 1167 418 q 1212 508 1212 450 q 1675 775 1301 557 m 9 770 q 463 503 452 515 q 508 423 470 423 l 508 418 q 490 356 494 408 l 486 356 q 5 633 486 361 l 5 677 q 0 766 5 706 l 9 770 m 842 726 q 1046 677 954 726 l 1046 673 q 1011 602 1046 602 q 838 490 876 511 q 633 628 633 613 q 628 673 628 652 l 628 682 q 842 726 730 726 m 468 677 l 574 677 q 597 593 583 677 q 735 494 735 520 q 766 361 744 468 l 758 356 l 655 356 q 494 468 496 453 l 459 673 l 468 677 m 1100 677 l 1202 677 q 1212 668 1212 675 q 1171 454 1181 454 l 1020 356 l 918 356 q 909 366 909 356 q 949 517 939 517 q 1082 614 1082 591 q 1100 677 1086 677 m 748 646 q 838 583 753 633 q 926 646 892 614 q 855 655 876 655 l 810 655 q 748 646 795 655 m 530 606 l 530 593 q 664 490 530 562 q 708 459 664 485 l 708 486 q 530 606 707 492 m 962 490 l 962 459 q 1145 588 1145 564 l 1145 606 q 962 490 975 494 m 1675 597 l 1684 593 q 1679 503 1679 532 l 1679 463 q 1162 165 1672 454 l 1158 165 l 1158 170 q 1207 325 1158 325 l 1675 597 m 9 593 q 503 303 483 319 q 517 170 503 283 q 5 454 446 201 l 5 499 q 0 588 5 528 l 9 593 m 539 530 l 543 508 l 543 494 q 722 383 560 486 l 722 410 q 539 530 681 443 m 954 410 l 954 383 q 1131 508 1126 489 l 1131 526 l 1127 526 q 954 410 1021 461 m 784 481 q 838 446 800 463 l 895 481 q 900 477 895 477 q 869 330 869 374 l 869 191 q 860 182 869 182 l 815 182 q 806 191 806 182 l 806 312 q 775 477 806 369 l 784 481 m 512 392 l 521 392 q 588 330 588 357 q 619 285 589 285 q 655 254 655 260 l 655 54 l 646 54 q 543 138 543 116 q 512 392 521 335 m 1154 392 l 1158 383 q 1118 116 1131 116 l 1020 49 l 1016 58 l 1016 254 q 1087 303 1031 275 l 1087 347 q 1154 392 1087 353 m 762 298 l 766 290 l 766 147 q 775 138 768 138 l 904 138 l 904 290 q 913 298 905 298 q 980 250 980 254 l 980 26 q 949 5 966 5 q 909 102 926 52 l 766 102 q 722 5 729 5 l 717 5 q 690 26 690 20 l 690 245 q 762 298 701 261 m 798 71 l 873 71 q 909 5 885 71 l 900 0 l 775 0 q 766 14 766 0 q 798 71 791 71 z "},"R":{"ha":1221,"x_min":0,"x_max":1002,"o":"m 526 949 q 753 918 597 949 l 772 908 q 741 819 753 819 l 501 671 q 250 831 277 808 l 230 908 q 470 949 230 925 l 526 949 m 184 910 l 196 802 q 387 697 251 776 l 424 489 l 421 489 l 51 634 q 0 884 46 634 l 184 910 m 819 910 q 1002 881 1002 887 q 951 634 956 634 l 581 489 l 578 489 q 620 702 614 702 q 808 806 806 802 q 819 910 814 910 m 399 838 l 501 765 l 603 840 q 515 857 591 848 l 487 857 q 399 838 399 847 m 167 741 l 167 739 q 189 702 167 702 l 344 646 q 327 683 344 683 l 167 741 m 659 646 l 831 709 l 836 741 l 833 741 l 663 678 l 659 646 m 172 668 q 194 629 175 629 l 351 574 q 339 608 347 608 l 174 668 l 172 668 m 651 574 l 654 574 l 825 637 l 831 668 l 828 668 q 656 603 667 612 l 651 574 m 441 659 l 443 659 l 498 623 l 504 623 l 559 659 l 562 659 l 545 392 l 504 344 l 501 344 q 458 407 458 383 l 441 659 m 56 610 l 58 610 q 259 528 259 534 q 276 470 268 470 q 436 414 426 421 l 498 319 l 504 319 q 591 426 567 426 q 731 472 645 441 q 753 535 742 535 l 944 610 l 947 610 q 930 501 941 501 l 501 3 l 63 513 l 56 610 m 94 421 l 455 3 l 455 0 l 453 0 l 133 106 l 90 419 l 92 421 l 94 421 m 910 421 l 913 419 l 867 104 l 547 0 l 547 3 l 910 421 m 322 344 l 416 233 q 443 300 443 288 q 322 344 335 344 m 557 298 q 589 233 582 239 l 680 344 l 678 344 q 557 298 595 317 z "},"S":{"ha":1424,"x_min":0,"x_max":1228,"o":"m 362 945 l 866 945 l 866 942 q 782 634 790 634 q 612 541 623 541 q 441 640 481 612 l 362 942 l 362 945 m 6 869 l 311 827 q 377 585 368 595 l 616 450 q 857 591 831 571 q 924 830 918 830 l 1225 869 l 1228 866 q 1195 755 1201 755 l 1029 733 l 993 597 l 1156 610 l 1159 607 q 1126 498 1134 505 q 942 474 942 490 l 612 287 q 254 489 280 481 q 96 504 96 494 l 69 607 l 73 610 l 235 597 l 199 733 q 27 761 27 751 l 0 866 l 3 869 l 6 869 m 477 854 q 525 697 511 706 l 612 646 l 616 646 l 712 703 l 751 854 l 477 854 m 371 332 l 377 332 q 618 196 608 196 q 857 332 844 332 q 791 100 806 129 l 612 0 q 429 112 433 100 l 371 332 z "},"T":{"ha":1221,"x_min":0,"x_max":1095,"o":"m 501 950 l 593 950 l 600 942 l 600 928 l 593 920 l 501 920 l 494 928 l 494 942 l 501 950 m 353 916 l 741 916 q 783 878 760 907 l 783 824 l 787 711 l 749 676 l 345 676 l 307 711 l 312 824 l 312 878 q 353 916 334 907 m 68 878 l 285 878 l 293 870 l 293 707 q 353 657 332 657 l 467 657 l 475 650 l 475 593 l 467 585 l 216 585 q 83 734 115 667 l 0 870 q 68 878 19 878 m 810 878 l 1026 878 q 1095 870 1076 878 q 942 646 961 646 q 878 585 928 625 l 627 585 l 619 593 l 619 650 l 627 657 l 741 657 q 802 707 762 657 l 802 870 l 810 878 m 600 669 l 604 665 l 608 665 l 604 524 l 604 315 l 589 300 l 505 300 l 490 315 l 490 524 l 486 665 l 490 669 l 600 669 m 137 638 l 213 566 l 210 509 l 210 486 q 342 411 232 467 l 326 95 l 323 92 l 133 216 l 129 547 l 129 631 l 137 638 m 961 638 l 966 635 l 966 547 l 961 216 l 772 92 l 768 95 l 768 99 l 753 411 q 885 486 862 467 l 885 509 l 882 566 l 961 638 m 456 456 l 460 452 l 460 312 l 486 285 l 608 285 l 635 312 l 635 449 l 638 452 l 638 456 q 734 395 730 406 l 749 76 l 654 22 l 623 186 l 471 186 l 441 22 l 345 76 l 361 399 l 456 456 m 589 172 q 623 7 602 172 l 612 3 l 547 0 l 475 3 l 471 7 l 471 12 q 501 172 494 172 l 589 172 z "},"U":{"ha":1119,"x_min":0,"x_max":1017,"o":"m 136 0 q 0 136 0 0 l 0 882 q 136 1017 0 1017 l 882 1017 q 1017 882 1017 1017 l 1017 136 q 882 0 1017 0 l 136 0 m 882 17 q 1000 136 1000 17 l 1000 882 q 882 1000 1000 1000 l 136 1000 q 17 882 18 1000 l 17 136 q 136 17 18 17 l 882 17 z "},"V":{"ha":1289,"x_min":0,"x_max":1135,"o":"m 326 948 q 637 686 418 929 q 706 561 706 610 q 616 505 706 528 l 582 505 q 491 582 491 505 q 408 677 450 616 q 360 762 380 677 q 277 879 277 844 q 326 948 294 948 m 326 899 l 318 893 l 318 865 q 450 692 359 865 q 554 561 474 679 l 637 547 l 644 547 l 650 582 l 650 595 q 478 783 629 640 q 332 893 404 872 l 326 899 m 49 899 q 214 802 138 899 q 290 726 233 802 q 387 630 387 677 q 484 512 432 630 l 491 505 l 491 498 q 353 443 491 450 q 21 783 119 623 q 0 838 0 786 l 0 872 q 49 899 0 890 m 35 879 l 28 851 q 104 747 39 851 q 290 561 195 617 q 422 484 294 529 l 422 533 q 62 865 286 692 l 35 879 m 623 879 l 637 879 q 810 762 713 879 q 838 726 838 762 q 969 568 935 648 q 920 498 969 531 q 789 561 789 517 q 630 741 750 577 l 637 783 l 602 817 l 602 858 l 623 879 m 658 823 q 741 665 667 750 q 851 554 851 566 q 899 540 851 540 l 899 574 q 783 720 899 615 q 706 795 783 734 l 677 823 l 658 823 m 741 519 q 934 422 826 519 q 1073 326 1073 414 q 1135 90 1135 279 q 1031 0 1135 0 l 997 0 l 997 7 l 962 0 l 906 0 q 789 97 857 0 q 623 194 650 139 q 547 262 591 194 q 484 360 484 318 l 484 436 q 554 464 484 455 l 588 457 l 630 464 l 692 464 q 741 519 707 519 m 768 470 q 706 408 768 408 l 574 415 l 568 408 l 561 408 l 533 415 l 533 401 q 658 214 547 323 q 706 173 686 214 q 838 97 799 153 q 941 42 893 42 l 969 42 l 1073 49 l 1094 146 q 1052 277 1076 277 q 1010 353 1016 313 q 823 443 920 353 q 775 470 806 443 l 768 470 z "},"W":{"ha":909,"x_min":0,"x_max":845,"o":"m 495 1159 l 501 1154 l 507 1154 q 473 1103 486 1105 l 390 1103 q 356 1154 377 1105 l 361 1159 l 495 1159 m 390 1092 l 468 1092 l 479 1081 l 479 920 l 468 908 l 390 908 l 378 920 l 378 1081 l 390 1092 m 439 892 q 712 825 585 892 l 712 820 q 629 731 690 731 q 423 648 547 690 q 161 764 184 743 l 139 830 q 439 892 258 892 m 5 859 l 45 852 l 100 852 q 145 736 112 852 q 323 648 323 673 l 339 492 l 278 492 l 172 486 q 39 608 39 564 l 0 852 l 5 859 m 751 848 l 835 848 l 845 836 q 779 552 808 552 l 684 486 l 545 486 q 511 503 517 486 q 573 680 521 680 q 718 769 718 725 q 751 848 740 848 m 334 791 q 423 736 344 772 q 517 781 440 736 l 517 791 l 462 809 l 384 809 l 334 791 m 90 720 l 90 703 q 267 619 124 673 l 267 636 q 90 720 243 660 m 585 642 l 585 614 l 762 697 l 762 720 l 585 642 m 100 648 l 100 630 q 284 541 100 616 l 284 547 q 184 608 284 573 l 100 648 m 350 648 l 356 648 l 434 619 l 501 648 l 507 642 l 473 464 l 479 458 l 479 447 l 473 425 l 479 402 l 473 402 l 479 397 l 479 286 q 507 -4 479 183 l 434 -176 l 417 -176 q 345 12 345 -7 q 372 308 372 171 l 372 453 l 350 648 m 567 541 l 573 541 q 746 625 746 610 l 751 642 l 746 642 q 567 541 567 576 m 56 536 q 139 408 139 498 q 239 347 237 359 l 239 68 q 72 153 72 117 l 50 530 l 56 536 m 785 530 l 795 519 q 757 130 773 130 l 612 68 l 607 68 l 607 296 q 656 374 607 374 q 718 435 718 410 q 785 530 718 492 m 345 413 l 350 408 l 350 241 q 311 30 335 30 l 262 57 l 262 347 q 345 413 287 377 m 511 413 l 585 353 l 585 57 q 529 30 585 45 q 501 258 501 164 l 501 402 l 511 413 z "},"X":{"ha":1313,"x_min":20,"x_max":1289,"o":"m 663 768 q 752 696 728 765 l 861 205 q 862 189 862 197 q 768 125 862 128 l 490 125 l 579 768 l 663 768 m 595 227 l 732 227 q 765 254 765 227 q 764 260 765 257 l 689 635 q 660 673 684 673 q 648 671 654 673 l 595 227 m 764 844 q 663 898 727 897 q 553 842 595 897 l 106 174 q 94 139 94 155 q 159 86 94 102 l 1149 86 q 1214 139 1214 102 q 1202 174 1214 155 l 764 844 m 661 960 q 821 879 787 956 l 852 828 l 857 823 l 1259 218 q 1289 128 1289 167 q 1185 33 1289 56 l 123 33 q 20 128 20 56 q 49 218 20 167 l 500 884 q 661 960 538 957 m 512 492 l 497 422 l 416 422 l 380 346 l 481 346 l 468 281 l 355 281 l 319 218 l 458 218 l 440 130 l 160 130 l 370 492 l 512 492 m 924 490 q 1000 446 970 490 l 1023 388 l 959 388 q 942 416 959 416 q 931 414 937 416 q 920 416 925 416 q 907 404 907 416 q 912 385 907 397 l 946 250 q 985 216 956 216 l 1025 216 q 1044 228 1044 216 q 1042 236 1044 231 l 1029 270 l 1085 270 l 1129 174 q 1136 149 1136 159 q 1105 126 1136 126 l 973 126 q 897 165 910 126 l 834 416 q 831 444 831 432 q 855 490 831 482 l 924 490 z "},"Y":{"ha":1729,"x_min":0,"x_max":1536,"o":"m 768 945 q 1521 568 1355 928 l 1536 473 q 1012 22 1536 168 q 768 0 875 0 q 15 377 181 19 l 0 473 q 524 924 0 777 q 768 945 661 945 m 909 872 q 1100 480 1100 692 l 1100 465 q 909 74 1100 254 l 924 74 q 1322 237 1069 74 q 1433 392 1433 349 l 1293 392 q 1190 266 1282 334 l 1182 266 l 1182 273 q 1226 465 1226 375 l 1226 480 q 1182 680 1226 561 l 1190 680 q 1299 539 1299 591 l 1440 539 q 1211 783 1440 629 q 909 872 1004 872 m 119 473 q 532 96 119 231 l 532 281 q 406 385 422 352 l 406 392 l 532 392 l 532 539 l 406 539 l 392 554 l 532 664 l 532 849 q 119 473 119 715 m 664 812 l 664 132 q 975 458 975 233 q 664 812 975 700 m 783 620 q 878 465 878 549 l 878 458 q 775 325 878 380 l 768 332 l 768 606 l 783 620 z "},"Z":{"ha":1187,"x_min":4,"x_max":964,"o":"m 484 163 q 702 254 612 163 q 792 472 792 344 q 702 690 792 600 q 484 781 612 781 q 266 690 356 781 q 176 472 176 600 q 266 254 176 344 q 484 163 356 163 m 484 951 q 686 908 592 951 l 638 805 q 751 722 702 775 l 833 800 q 964 471 964 660 q 960 413 964 441 l 846 428 q 803 294 838 356 l 903 237 q 574 0 795 40 l 551 113 q 484 106 514 106 q 416 113 454 106 l 393 0 q 64 237 173 40 l 164 294 q 122 428 130 356 l 8 413 q 4 471 4 441 q 134 800 4 660 l 217 722 q 330 805 266 775 l 282 908 q 484 951 376 951 m 752 556 q 764 472 764 514 q 682 273 764 355 q 484 191 600 191 q 328 238 399 191 q 227 359 260 284 l 569 359 q 583 373 583 359 q 569 388 583 388 l 216 388 q 203 472 203 425 q 286 671 203 589 q 484 753 368 753 q 639 706 569 753 q 741 585 707 660 l 401 585 q 387 570 387 585 q 401 556 387 556 l 752 556 z "},"[":{"ha":1153,"x_min":0,"x_max":944,"o":"m 451 947 l 493 947 q 661 859 592 947 l 661 855 q 467 687 480 687 l 283 855 q 451 947 349 947 m 257 846 q 334 766 334 787 l 397 614 l 397 550 l 391 544 l 130 544 q 0 842 105 584 l 3 846 l 257 846 m 690 846 l 944 846 l 944 842 q 814 547 828 557 l 553 547 l 547 553 l 547 557 q 578 693 547 633 q 642 808 622 802 l 690 846 m 362 747 q 477 658 469 658 q 582 747 486 671 l 585 747 l 585 744 l 528 629 q 512 359 522 359 l 432 359 l 429 362 l 426 362 q 404 655 421 655 l 362 747 m 397 522 l 400 518 l 400 490 q 273 413 400 481 l 187 515 l 191 518 l 248 518 l 397 522 m 547 522 l 696 518 l 750 518 l 757 512 l 668 413 q 544 490 545 484 l 544 515 l 547 518 l 547 522 m 134 518 l 159 518 q 264 381 264 397 q 241 203 250 203 q 127 270 140 256 l 127 512 l 134 518 m 785 518 l 814 518 l 817 515 l 820 515 l 817 366 l 817 270 q 699 203 817 260 l 680 391 l 785 518 m 400 457 l 407 457 l 407 454 l 410 343 l 531 343 l 537 349 l 537 457 l 544 457 q 655 372 655 387 l 671 175 l 591 89 l 544 184 l 397 184 q 353 92 365 105 l 273 172 q 298 387 290 387 l 400 457 m 416 168 l 528 168 q 576 66 538 165 q 467 0 543 0 q 368 70 403 0 q 416 168 405 156 z "},"\\":{"ha":1458,"x_min":0,"x_max":1248,"o":"m 5 945 l 448 642 q 477 378 457 523 l 532 343 l 532 345 l 502 542 l 505 542 q 602 340 522 516 l 604 340 l 604 343 l 517 703 l 519 706 l 522 706 l 621 500 l 627 500 q 728 706 698 656 l 731 703 l 644 340 q 716 492 648 340 l 743 542 l 746 542 l 716 343 l 773 378 l 803 644 l 1243 945 l 1248 939 q 1191 823 1198 827 l 1168 806 l 1168 731 l 1166 718 l 1168 716 l 1171 716 l 1193 718 l 1198 709 l 1181 627 l 1183 627 l 1211 644 l 1213 642 l 1213 639 q 1161 524 1172 535 q 828 288 836 299 l 828 254 l 830 251 l 830 249 l 1171 479 l 1173 477 q 1118 358 1131 365 l 627 0 l 621 0 l 119 368 l 75 477 l 77 479 l 418 249 l 420 251 l 420 288 l 79 532 l 35 642 l 37 644 l 60 629 l 62 629 l 52 709 l 64 716 l 85 713 l 85 806 q 37 855 55 816 l 0 942 l 3 945 l 5 945 m 1006 701 l 1006 699 l 1009 699 l 1148 713 l 1148 793 l 1006 701 m 102 791 l 102 711 l 243 696 l 104 791 l 102 791 m 910 631 l 915 631 l 1163 629 l 1178 699 l 1176 699 q 945 656 945 676 q 910 631 911 637 m 72 696 l 72 694 l 79 629 l 338 631 l 340 631 l 340 634 q 261 673 281 673 l 72 696 m 172 612 l 90 612 l 90 606 q 174 554 167 554 l 370 612 l 370 614 l 368 614 l 172 612 m 878 614 l 875 612 l 875 606 l 1079 552 q 1158 606 1133 593 l 1158 609 l 878 614 m 191 537 l 408 388 l 410 388 l 382 594 l 380 594 q 191 537 191 543 m 865 587 l 838 388 l 840 388 l 1057 539 l 865 589 l 865 587 z "},"]":{"ha":1017,"x_min":0,"x_max":829,"o":"m 6 950 l 174 743 l 278 743 q 317 684 286 739 l 317 677 l 252 677 l 252 660 l 328 660 l 355 618 l 352 616 l 273 616 l 275 612 l 275 607 l 273 604 l 273 601 l 364 601 q 411 521 378 586 l 417 521 q 465 601 450 586 l 556 601 l 553 604 l 553 610 l 556 612 l 556 616 l 479 616 l 477 618 l 473 618 l 500 660 l 577 660 l 577 677 l 512 677 l 512 684 q 551 743 543 739 l 654 743 l 826 950 l 829 947 l 829 944 q 766 275 773 275 l 414 3 l 59 281 l 0 947 l 3 950 l 6 950 m 343 894 l 393 799 l 435 799 q 488 894 471 875 q 562 781 562 795 l 414 542 q 267 787 401 551 q 343 894 326 879 m 393 692 l 393 689 l 411 636 l 417 636 l 435 692 l 393 692 m 180 391 l 275 287 l 281 287 l 314 364 l 180 391 m 515 364 l 547 287 l 553 287 l 648 391 l 646 391 l 515 364 m 65 258 l 385 3 l 382 0 l 379 0 q 74 106 81 98 l 59 255 l 62 258 l 65 258 m 766 258 l 770 255 q 749 101 757 101 l 447 0 l 444 3 l 444 6 l 766 258 z "},"^":{"ha":1119,"x_min":0,"x_max":1017,"o":"m 136 0 q 0 136 0 0 l 0 882 q 136 1017 0 1017 l 882 1017 q 1017 882 1017 1017 l 1017 136 q 882 0 1017 0 l 136 0 m 882 17 q 1000 136 1000 17 l 1000 882 q 882 1000 1000 1000 l 136 1000 q 17 882 18 1000 l 17 136 q 136 17 18 17 l 882 17 z "},"_":{"ha":1119,"x_min":0,"x_max":1017,"o":"m 136 0 q 0 136 0 0 l 0 882 q 136 1017 0 1017 l 882 1017 q 1017 882 1017 1017 l 1017 136 q 882 0 1017 0 l 136 0 m 882 17 q 1000 136 1000 17 l 1000 882 q 882 1000 1000 1000 l 136 1000 q 17 882 18 1000 l 17 136 q 136 17 18 17 l 882 17 z "},"`":{"ha":1255,"x_min":0,"x_max":1107,"o":"m 113 950 l 115 950 q 421 646 416 646 l 686 646 l 991 950 l 994 950 l 991 936 q 977 759 991 759 q 784 568 939 727 l 784 512 l 1104 778 l 1107 778 l 1045 258 l 1042 258 q 983 523 1035 258 l 981 523 l 876 450 l 876 317 l 553 -67 l 228 317 l 228 447 l 124 523 l 67 256 l 62 256 l 0 778 l 3 778 l 320 512 l 323 512 l 323 565 l 118 772 l 113 950 m 337 385 l 441 205 l 526 239 l 340 385 l 337 385 m 581 239 q 666 205 656 205 l 767 382 l 767 385 q 581 239 595 255 z "},"a":{"ha":1051,"x_min":0,"x_max":949,"o":"m 536 434 l 593 305 l 780 509 l 780 519 l 536 434 m 170 519 l 170 509 l 356 305 l 414 434 l 170 519 m 848 153 l 525 0 l 882 492 l 848 153 m 475 458 l 593 559 l 797 631 l 804 671 l 604 604 l 610 661 l 814 726 l 821 770 l 621 705 l 627 763 l 865 848 l 949 949 l 898 577 l 475 0 l 52 577 l 0 949 l 85 848 l 322 763 l 329 705 l 129 770 l 136 726 l 339 661 l 346 604 l 145 671 l 153 631 l 356 559 l 475 458 m 68 492 l 425 0 l 101 153 l 68 492 m 526 831 l 610 983 l 559 576 l 477 507 l 475 509 l 472 507 l 390 576 l 339 983 l 424 831 l 526 831 m 475 610 l 518 747 l 431 747 l 475 610 z "},"b":{"ha":1119,"x_min":0,"x_max":1017,"o":"m 966 451 l 814 298 l 753 431 l 882 678 l 661 678 l 671 712 l 617 712 l 593 763 l 736 763 l 871 841 l 966 451 m 509 576 l 553 678 l 509 773 l 509 774 l 465 679 l 509 577 l 509 576 m 509 875 l 593 685 l 617 685 l 509 458 l 509 458 l 400 686 l 424 686 l 509 876 l 509 875 m 509 949 l 510 949 l 593 806 l 705 806 l 899 905 l 1017 441 l 851 266 l 892 180 l 509 0 l 509 1 l 125 180 l 166 267 l 0 441 l 119 906 l 312 806 l 424 807 l 507 949 l 509 949 l 509 949 m 509 24 l 868 186 l 831 271 l 998 444 l 886 877 l 719 790 l 580 790 l 509 918 l 509 919 l 437 791 l 298 791 l 132 878 l 20 445 l 186 272 l 149 187 l 509 24 l 509 24 m 509 424 l 549 305 l 685 380 l 509 68 l 509 68 l 332 380 l 468 306 l 509 425 l 509 424 m 186 645 l 373 645 l 475 435 l 261 492 l 186 645 m 288 408 l 475 68 l 197 204 l 288 408 m 146 842 l 281 764 l 424 764 l 400 713 l 346 713 l 356 679 l 136 679 l 264 431 l 203 299 l 51 452 l 146 842 m 756 492 l 543 434 l 644 644 l 831 644 l 756 492 m 821 203 l 543 68 l 729 407 l 821 203 z "},"c":{"ha":949,"x_min":7,"x_max":807,"o":"m 764 945 q 807 892 775 914 q 764 873 807 886 q 722 836 739 873 q 684 860 702 836 l 684 871 q 759 948 719 922 l 764 945 m 739 736 q 780 543 780 627 l 780 532 q 763 475 780 509 q 644 366 695 373 l 627 366 q 526 407 570 366 q 474 526 475 475 l 481 543 q 576 576 559 559 q 739 736 679 678 m 627 441 q 515 519 576 448 q 610 400 553 407 l 627 401 q 712 448 668 401 l 702 457 q 651 441 675 441 l 627 441 m 737 364 q 652 252 707 319 l 649 252 q 644 311 644 275 l 644 338 l 646 343 q 734 370 705 357 l 737 364 m 55 948 q 130 871 95 922 l 130 860 q 92 836 112 836 q 50 873 75 873 q 7 892 7 886 q 50 945 39 914 l 55 948 m 75 736 q 237 576 135 678 q 332 543 255 559 l 340 526 q 288 407 339 475 q 186 366 244 366 l 170 366 q 51 475 119 373 q 34 532 34 509 l 34 543 q 75 736 34 627 m 186 441 l 163 441 q 112 457 139 441 l 102 448 q 187 401 146 401 l 203 400 q 298 519 260 407 q 186 441 237 448 m 79 370 q 168 343 109 357 l 170 338 l 170 311 q 165 252 170 275 l 162 252 q 77 364 106 319 l 79 370 m 458 848 q 475 865 475 848 q 458 882 475 882 l 356 882 q 339 865 339 882 q 355 848 339 848 l 458 848 m 407 985 q 611 922 534 985 q 526 705 559 780 q 543 695 526 695 q 593 821 553 712 l 610 814 l 654 854 l 702 807 l 695 804 q 651 773 651 787 q 671 735 651 755 l 678 729 q 543 587 627 679 q 448 550 448 559 q 458 475 448 518 q 610 322 481 390 q 620 203 617 312 l 618 193 l 570 221 q 569 295 570 271 l 553 312 l 543 311 q 475 254 498 254 q 467 146 468 170 q 414 0 423 119 l 400 0 q 347 146 391 119 q 339 254 346 170 q 271 311 315 254 l 261 312 l 245 295 q 243 221 244 271 l 196 193 l 194 203 q 203 322 197 312 q 356 475 332 390 q 366 550 366 518 q 271 587 366 559 q 136 729 186 679 l 142 735 q 163 773 163 755 q 119 804 163 787 l 112 807 l 159 854 l 203 814 l 220 821 q 271 695 261 712 q 288 705 288 695 q 203 922 254 780 q 407 985 280 985 m 458 644 q 475 661 475 644 q 458 679 475 678 l 356 679 q 339 661 339 678 q 355 644 339 644 l 458 644 m 458 712 q 475 729 475 712 q 458 747 475 746 l 356 747 q 339 729 339 746 q 355 712 339 712 l 458 712 m 458 779 q 475 796 475 779 q 458 814 475 813 l 356 814 q 339 796 339 813 q 355 779 339 779 l 458 779 z "},"d":{"ha":1136,"x_min":-2,"x_max":950,"o":"m 170 420 l 271 336 l 407 336 l 339 393 l 170 420 m 1 448 q -2 479 -2 462 q 52 687 -2 572 q 168 870 99 785 q 339 1009 253 972 q 219 725 275 979 q 196 557 196 621 q 203 505 196 523 l 1 448 m 271 561 q 269 587 269 571 q 302 736 269 667 q 407 841 340 817 q 358 686 358 778 q 373 645 358 652 q 271 561 321 620 m 474 196 q 411 208 440 196 q 373 252 373 224 l 304 252 l 203 0 q 177 132 203 28 q 138 245 155 221 l 73 341 q 1 420 28 406 q 185 473 92 451 q 271 488 240 488 q 391 600 271 552 q 464 618 437 618 q 474 616 470 618 q 486 618 477 618 q 569 595 518 618 q 677 488 677 543 q 874 443 726 488 q 947 420 932 425 q 857 311 925 408 l 804 235 q 772 135 792 215 q 745 0 745 31 l 643 252 l 576 252 q 537 208 576 224 q 474 196 507 196 m 474 168 q 612 217 612 168 q 609 224 610 220 l 711 0 l 238 0 l 339 224 q 338 217 338 220 q 474 168 338 168 m 779 420 l 609 393 l 542 336 l 677 336 l 779 420 m 947 448 l 745 505 q 752 557 752 523 q 710 802 752 644 q 609 1009 662 985 q 845 790 741 956 q 950 479 950 624 q 947 448 950 462 m 677 561 q 576 645 629 618 q 590 686 590 652 q 542 841 590 777 q 665 682 629 808 q 680 587 680 627 q 677 561 680 572 z "},"e":{"ha":1255,"x_min":0,"x_max":1059,"o":"m 1023 581 q 950 752 1012 665 q 815 882 892 834 l 832 905 q 1059 588 1019 795 l 1023 581 m 530 584 q 619 533 590 584 q 630 492 630 511 q 600 426 629 451 q 530 400 571 400 q 458 426 488 400 q 429 492 429 451 l 429 495 q 458 558 429 533 q 530 584 489 584 m 530 949 q 720 920 614 948 q 812 879 801 897 l 677 692 q 793 539 772 633 l 1023 581 q 1028 522 1028 549 l 663 492 q 593 606 663 570 q 530 621 561 621 q 432 586 469 620 q 395 492 395 552 l 31 522 q 37 581 31 545 l 265 539 q 382 692 287 633 l 246 879 q 256 886 247 882 l 260 889 q 442 941 321 924 q 530 949 505 949 m 530 2 q 329 37 425 2 l 340 64 q 433 41 363 50 q 530 33 492 33 q 627 41 570 33 q 718 64 694 50 l 730 37 q 530 2 635 2 m 35 581 l 0 588 q 227 905 41 797 l 244 882 q 109 752 166 831 q 35 581 48 668 m 58 460 q 186 474 84 474 q 364 460 303 474 q 395 442 395 452 q 453 389 409 411 q 530 369 492 369 q 609 390 568 369 q 663 442 650 410 q 872 474 663 474 q 1001 460 973 474 l 982 417 q 829 298 928 401 q 718 67 718 180 l 629 263 q 530 247 582 247 q 429 263 475 247 l 342 67 q 216 312 342 186 q 157 364 189 338 q 77 417 102 409 l 58 460 z "},"f":{"ha":882,"x_min":0,"x_max":685,"o":"m 342 144 l 229 290 l 309 271 l 183 406 l 193 320 l 85 374 l 0 745 l 168 574 l 241 384 l 342 279 l 443 384 l 517 574 l 685 745 l 600 374 l 492 320 l 502 406 l 376 271 l 456 290 l 342 144 m 43 655 l 62 579 l 140 573 l 43 655 m 200 243 l 332 122 l 322 0 l 200 243 m 59 361 l 195 193 l 70 242 l 59 361 m 545 573 l 623 579 l 642 655 l 545 573 m 362 0 l 352 122 l 485 243 l 362 0 m 615 242 l 490 193 l 625 361 l 615 242 m 241 683 l 411 683 l 399 650 l 254 650 l 263 623 l 390 623 l 378 592 l 275 592 l 285 564 l 368 564 l 356 532 l 296 532 l 342 405 l 553 984 l 553 975 l 421 416 l 342 322 l 264 416 l 132 975 l 132 984 l 241 683 z "},"g":{"ha":1017,"x_min":0,"x_max":823,"o":"m 98 336 l 178 286 l 206 180 q 261 63 217 134 l 162 149 q 98 336 142 266 m 158 427 q 198 424 179 424 q 294 454 251 424 l 336 458 q 248 378 295 419 q 197 314 209 349 l 35 415 q 0 541 0 467 q 10 625 0 579 l 67 586 q 64 549 64 566 q 158 427 64 456 m 293 479 q 198 449 244 449 q 134 465 165 449 q 90 544 90 492 q 93 572 90 557 l 136 551 q 135 542 135 546 q 168 490 135 500 q 197 486 184 486 q 243 496 222 486 l 293 479 m 89 692 l 75 620 l 15 659 q 100 831 22 729 l 89 692 m 355 678 q 189 898 307 789 q 380 948 252 936 l 380 949 l 442 949 l 442 948 q 633 898 570 936 q 466 678 516 789 l 355 678 m 409 693 l 465 769 l 450 787 l 363 787 l 352 768 l 409 693 m 477 637 q 663 881 543 761 l 692 854 l 699 707 l 715 602 l 466 490 l 357 490 l 107 602 l 123 707 l 130 854 l 159 881 q 345 637 279 761 l 477 637 m 721 831 q 808 659 801 729 l 747 620 l 733 692 l 721 831 m 530 479 l 578 496 q 625 486 600 486 q 655 490 639 486 q 688 542 688 500 q 687 551 688 546 l 730 572 q 732 544 732 557 q 689 465 732 492 q 624 449 657 449 q 530 479 578 449 m 665 427 q 759 549 759 456 q 755 586 759 566 l 812 625 q 823 541 823 579 q 787 415 823 467 l 626 314 q 575 378 613 349 q 486 458 528 419 l 528 454 q 624 424 570 424 q 665 427 644 424 m 406 426 l 366 353 l 382 362 l 444 362 l 464 354 l 421 426 l 406 426 m 446 466 q 537 375 494 394 q 606 277 606 315 q 603 259 606 267 l 566 223 l 559 280 l 518 245 l 304 245 l 264 280 l 257 223 l 220 259 q 216 277 216 267 q 286 375 216 315 q 377 466 328 394 l 446 466 m 352 4 q 243 180 302 4 l 307 128 l 338 174 l 484 174 l 516 128 l 578 180 q 469 4 520 4 l 352 4 m 661 149 l 561 63 q 616 180 606 134 l 644 286 l 724 336 q 661 149 681 266 z "},"h":{"ha":1153,"x_min":2,"x_max":945,"o":"m 108 509 q 90 482 108 487 l 90 482 q 119 454 119 482 l 119 399 q 110 377 119 384 l 115 377 q 143 349 143 377 q 125 323 143 327 l 127 323 q 156 294 156 323 q 153 279 156 285 q 162 279 157 279 q 191 252 191 279 q 184 231 191 237 l 189 231 q 217 203 217 231 q 216 194 217 198 q 237 201 223 201 q 266 173 266 201 q 264 161 266 167 q 281 165 271 165 q 309 137 309 165 l 309 134 q 332 144 315 144 q 360 116 360 144 l 359 111 q 381 119 366 119 q 410 91 410 119 q 381 64 410 64 q 354 91 354 64 q 355 97 354 94 q 332 89 348 89 q 304 116 304 89 l 304 120 q 281 110 298 110 q 254 137 254 110 q 255 150 254 144 q 237 145 248 145 q 210 173 210 145 q 210 183 210 178 q 189 176 203 176 q 161 203 161 176 q 168 224 161 218 q 162 224 165 224 q 135 252 135 224 q 138 267 135 261 q 127 267 134 267 q 100 294 100 267 q 119 321 100 317 l 115 321 q 87 349 87 321 q 96 372 87 365 q 90 371 93 371 q 62 399 62 371 l 62 454 q 80 481 62 477 l 79 481 q 52 509 52 481 q 79 537 52 537 l 84 537 q 75 559 75 543 q 102 588 75 588 q 130 559 130 588 q 102 532 130 532 l 98 532 q 108 509 108 526 m 460 68 q 439 61 453 61 q 412 89 412 61 q 439 117 412 117 q 459 111 452 117 l 459 145 q 237 246 328 152 q 144 477 144 342 q 239 707 144 610 q 459 809 330 800 l 459 847 q 444 844 453 844 q 420 854 427 844 l 421 849 q 393 822 421 822 q 366 839 371 822 l 366 837 q 338 810 366 810 q 317 817 324 810 l 318 811 q 290 784 318 784 q 268 792 275 784 l 268 787 q 239 760 268 760 q 229 761 233 760 q 232 745 232 755 q 203 718 232 718 q 188 721 194 718 q 189 711 189 717 q 159 684 189 684 l 155 684 q 163 661 163 677 q 135 634 163 634 q 127 635 130 634 q 132 615 132 628 q 104 588 132 588 q 77 615 77 588 q 104 644 77 644 q 113 644 109 644 q 108 661 108 650 q 135 690 108 690 l 140 690 q 132 711 132 696 q 159 740 132 740 q 177 736 170 740 q 176 745 176 740 q 203 773 176 773 q 215 772 210 773 q 212 787 212 778 q 239 816 212 816 q 262 807 255 816 l 262 811 q 290 840 262 840 q 311 833 303 840 l 310 837 q 338 866 310 866 q 366 847 361 866 l 366 849 q 393 878 366 878 q 416 867 410 878 l 416 871 q 444 900 416 900 q 471 882 467 900 l 477 882 q 504 900 481 900 q 531 871 531 900 l 531 867 q 555 878 538 878 q 582 849 582 878 l 582 847 q 610 866 587 866 q 637 837 637 866 l 637 833 q 658 840 644 840 q 685 811 685 840 l 685 807 q 708 816 692 816 q 736 787 736 816 q 732 772 736 778 q 744 773 737 773 q 771 745 771 773 q 770 736 771 740 q 788 740 777 740 q 815 711 815 740 q 807 690 815 696 l 812 690 q 840 661 840 690 q 835 644 840 650 q 844 644 839 644 q 871 615 871 644 q 844 588 871 588 q 815 615 815 588 q 821 635 815 628 q 812 634 817 634 q 784 661 784 634 q 793 684 784 677 l 788 684 q 759 711 759 684 q 760 721 759 717 q 744 718 753 718 q 715 745 715 718 q 719 761 715 755 q 708 760 714 760 q 680 787 680 760 l 680 792 q 658 784 673 784 q 629 811 629 784 l 630 817 q 610 810 623 810 q 581 837 581 810 l 581 839 q 555 822 576 822 q 526 849 526 822 l 527 854 q 504 844 520 844 q 488 847 494 844 l 488 809 q 708 707 617 800 q 804 477 804 610 q 711 246 804 342 q 488 145 619 152 l 488 111 q 509 117 495 117 q 536 89 536 117 q 509 61 536 61 q 488 68 494 61 l 460 68 m 473 925 q 158 793 289 924 q 26 474 26 661 q 158 155 26 288 q 473 24 289 24 q 789 155 659 24 q 922 474 922 288 q 789 793 922 661 q 473 925 659 924 m 471 0 q 141 138 279 1 q 2 474 2 277 q 141 810 2 671 q 471 949 279 947 l 476 949 q 806 810 669 947 q 945 474 945 671 q 806 138 945 277 q 476 0 669 1 l 471 0 m 850 532 l 846 532 q 817 559 817 532 q 846 588 817 588 q 873 559 873 588 q 863 537 873 543 l 868 537 q 895 509 895 537 q 868 481 895 481 l 867 481 q 885 454 885 477 l 885 399 q 857 371 885 371 q 851 372 854 371 q 860 349 860 365 q 832 321 860 321 l 829 321 q 847 294 847 317 q 820 267 847 267 q 810 267 814 267 q 812 252 812 261 q 785 224 812 224 q 779 224 782 224 q 787 203 787 218 q 759 176 787 176 q 737 183 744 176 q 738 173 738 178 q 710 145 738 145 q 692 150 699 145 q 694 137 694 144 q 667 110 694 110 q 643 120 650 110 l 643 116 q 616 89 643 89 q 593 97 600 89 q 593 91 593 94 q 566 64 593 64 q 537 91 537 64 q 566 119 537 119 q 588 111 581 119 l 587 116 q 616 144 587 144 q 638 134 632 144 l 638 137 q 667 165 638 165 q 684 161 677 165 q 682 173 682 167 q 710 201 682 201 q 731 194 724 201 q 730 203 730 198 q 759 231 730 231 l 764 231 q 757 252 757 237 q 785 279 757 279 q 794 279 790 279 q 791 294 791 285 q 820 323 791 323 l 822 323 q 804 349 804 327 q 832 377 804 377 l 838 377 q 829 399 829 384 l 829 454 q 857 482 829 482 l 858 482 q 840 509 840 487 q 850 532 840 526 z "},"i":{"ha":1221,"x_min":0,"x_max":1097,"o":"m 512 475 l 483 603 l 549 659 l 614 603 l 586 475 l 512 475 m 467 256 l 457 311 l 549 420 l 640 311 l 631 256 l 467 256 m 489 128 l 469 238 l 627 238 l 608 128 l 489 128 m 512 0 l 492 110 l 605 110 l 586 0 l 512 0 m 878 37 l 842 128 l 987 165 l 932 347 l 1006 385 l 1097 37 l 878 37 m 439 55 q 292 91 366 55 l 292 146 l 165 183 l 237 420 l 475 420 l 475 403 l 401 311 l 457 55 l 439 55 m 55 439 l 73 695 l 238 749 l 238 512 l 183 385 l 55 439 m 274 549 l 274 823 q 530 951 403 951 l 530 677 l 274 549 m 0 37 l 91 385 l 165 347 l 110 165 l 256 128 l 220 37 l 0 37 m 804 91 q 659 55 732 55 l 640 55 l 696 311 l 622 403 l 622 420 l 861 420 l 932 183 l 804 146 l 804 91 m 914 385 l 860 512 l 860 749 l 1025 695 l 1042 439 l 914 385 m 567 677 l 567 951 q 823 823 695 951 l 823 549 l 567 677 z "},"j":{"ha":1085,"x_min":-1,"x_max":864,"o":"m 300 818 q 213 753 254 788 q 146 827 178 798 q 273 911 205 882 l 300 818 m 431 945 q 570 920 503 945 l 543 825 l 431 756 l 320 825 l 294 920 q 431 945 360 945 m 171 524 l 113 564 q 109 450 109 520 q 160 0 109 228 l 40 224 q -1 551 -1 382 q 1 617 -1 594 q 130 810 41 720 q 194 740 182 758 l 171 524 m 150 506 l 156 440 l 163 497 l 186 481 l 189 433 l 200 471 l 238 444 q 245 264 245 343 l 245 174 l 266 136 l 248 104 l 163 171 q 134 484 134 307 l 134 517 l 150 506 m 395 474 l 418 404 l 338 424 l 330 260 l 264 453 l 195 507 l 207 620 l 252 597 l 273 522 l 324 500 l 409 543 l 209 650 l 217 726 l 317 799 l 431 730 l 547 799 l 646 726 l 654 650 l 454 543 l 539 500 l 589 522 l 611 597 l 656 620 l 668 507 l 598 453 l 533 260 l 525 424 l 446 404 l 468 474 l 395 474 m 431 52 q 334 71 393 52 l 334 26 q 273 159 334 24 l 285 313 l 328 189 l 535 189 l 578 313 l 589 159 q 529 26 529 24 l 529 71 q 431 52 470 52 m 591 911 q 718 827 658 882 q 650 753 686 798 q 563 818 608 788 l 591 911 m 669 740 q 734 810 681 758 q 863 617 822 720 q 864 551 864 594 q 823 224 864 382 l 703 0 q 754 450 754 228 q 750 564 754 520 l 692 524 l 669 740 m 728 517 l 728 484 q 700 171 728 307 l 615 104 l 597 136 l 618 174 l 618 264 q 625 444 618 343 l 663 471 l 674 433 l 677 481 l 700 497 l 707 440 l 713 506 l 728 517 z "},"k":{"ha":1119,"x_min":5,"x_max":930,"o":"m 467 677 q 636 635 567 677 l 602 551 l 467 488 l 333 551 l 298 635 q 467 677 368 677 m 408 76 l 395 153 l 355 139 l 357 68 q 290 136 342 81 l 325 221 l 422 243 l 428 286 l 428 403 l 276 490 l 283 412 l 45 373 l 172 478 q 5 583 74 530 q 208 949 70 827 q 142 704 147 816 q 262 630 249 656 l 308 536 l 467 467 l 627 536 l 673 630 q 793 704 686 656 q 726 949 788 816 q 930 583 865 827 q 764 478 861 530 l 890 373 l 652 412 l 659 490 l 507 403 l 507 286 l 513 243 l 610 221 l 644 136 q 578 68 592 81 l 581 139 l 540 153 l 527 76 l 408 76 m 308 336 l 393 328 l 399 277 l 320 264 l 268 171 q 193 370 223 258 l 289 387 l 308 336 m 435 0 l 412 57 l 522 57 l 499 0 l 435 0 m 646 387 l 742 370 q 667 171 711 258 l 615 264 l 535 277 l 543 328 l 627 336 l 646 387 z "},"l":{"ha":711,"x_min":-1,"x_max":503,"o":"m 252 803 l 170 907 q 252 949 199 949 q 333 907 303 949 l 252 803 m 252 627 l 116 490 q -1 589 52 528 l 7 715 l 56 690 l 54 624 l 134 594 l 185 661 l 29 745 q 146 889 71 821 l 252 773 l 357 889 q 473 745 431 821 l 317 661 l 369 594 l 450 624 l 447 690 l 496 715 l 503 589 q 387 490 451 528 l 252 627 m 361 454 q 252 0 312 208 q 141 454 191 208 l 252 566 l 361 454 z "},"m":{"ha":949,"x_min":0,"x_max":732,"o":"m 366 298 q 274 352 304 298 l 274 452 q 366 949 277 452 q 458 452 455 452 l 458 352 q 366 298 428 298 m 300 0 q 162 201 199 86 l 190 243 l 193 304 l 104 366 l 90 550 l 76 579 l 57 572 l 0 636 q 24 801 2 732 q 114 705 63 762 l 199 774 l 300 765 l 248 499 l 172 553 l 121 517 l 172 444 l 181 486 l 241 465 l 245 346 q 366 270 281 270 q 486 346 450 270 l 492 465 l 551 486 l 560 444 l 610 517 l 560 553 l 484 499 l 432 765 l 533 774 l 618 705 q 708 801 669 762 q 732 636 730 732 l 675 572 l 656 579 l 642 550 l 629 366 l 540 304 l 543 243 l 570 201 q 432 0 533 86 l 300 0 m 279 256 l 235 201 l 324 118 l 279 256 m 408 118 l 496 201 l 454 256 l 408 118 z "},"n":{"ha":1153,"x_min":0,"x_max":964,"o":"m 414 466 l 465 353 l 356 372 l 356 248 l 267 355 l 282 235 l 221 3 q 96 197 136 120 l 144 344 l 54 229 q 0 416 13 310 l 127 530 l 18 644 l 118 951 q 274 734 241 790 l 245 633 l 201 585 q 416 536 345 536 l 275 640 l 311 763 q 482 813 371 813 q 653 763 593 813 l 688 640 l 549 536 q 763 585 620 536 l 718 633 l 690 734 q 846 951 722 790 l 947 644 l 836 530 l 964 416 q 910 229 951 310 l 820 344 l 867 197 q 743 3 828 120 l 682 235 l 696 355 l 608 248 l 608 372 l 500 353 l 550 466 l 414 466 m 440 0 q 313 42 394 0 l 321 235 l 394 83 l 570 83 l 644 235 l 652 42 q 524 0 570 0 l 440 0 z "},"o":{"ha":1220,"x_min":3,"x_max":1027,"o":"m 640 663 l 922 948 l 916 774 l 725 587 l 725 534 l 1027 789 l 966 298 l 911 548 l 814 479 l 814 356 l 515 0 l 216 356 l 216 479 l 120 548 l 65 298 l 3 789 l 305 534 l 305 587 l 115 774 l 109 948 l 391 663 l 640 663 m 410 246 l 491 288 l 316 423 l 410 246 m 714 423 l 540 288 l 620 246 l 714 423 z "},"p":{"ha":949,"x_min":0,"x_max":848,"o":"m 519 468 l 492 400 l 610 458 l 634 502 l 519 468 m 214 502 l 237 458 l 356 400 l 329 468 l 214 502 m 705 153 l 475 44 l 763 515 l 705 153 m 475 797 l 593 949 l 511 581 l 424 475 l 337 581 l 254 949 l 373 797 l 475 797 m 424 593 l 457 712 l 391 712 l 424 593 m 424 455 l 498 532 l 644 578 l 650 604 l 526 570 l 543 637 l 678 677 l 683 702 l 551 664 l 572 753 l 702 797 l 848 983 l 770 559 l 424 0 l 78 559 l 0 983 l 146 797 l 275 753 l 297 664 l 165 702 l 170 677 l 305 637 l 321 570 l 197 604 l 203 578 l 349 532 l 424 455 m 85 515 l 373 44 l 143 153 l 85 515 z "},"q":{"ha":949,"x_min":10,"x_max":871,"o":"m 136 1034 q 125 932 125 983 q 170 797 130 853 l 356 712 l 407 543 l 407 458 l 441 424 l 475 458 l 475 543 l 526 712 l 712 797 q 753 932 753 846 q 746 1034 753 983 q 804 848 804 916 q 770 695 804 745 q 729 627 752 661 l 780 627 q 838 712 838 671 l 838 739 q 831 780 838 752 q 871 678 871 729 q 831 576 871 610 l 729 485 l 685 485 l 576 458 l 526 380 l 526 329 l 468 295 l 441 244 l 414 295 l 356 329 l 356 380 l 305 458 l 197 485 l 153 485 l 51 576 q 10 678 10 610 q 51 780 10 728 q 44 739 44 753 l 44 712 q 119 627 44 671 l 159 627 q 109 695 125 661 q 78 848 78 746 q 136 1034 78 916 m 441 678 l 465 468 l 441 444 l 417 468 l 441 678 m 254 515 l 363 458 l 373 441 l 373 483 l 329 536 l 254 570 l 254 515 m 509 483 l 509 441 l 519 458 l 627 515 l 627 570 l 553 536 l 509 483 m 197 468 l 295 448 l 339 380 q 305 322 305 345 l 305 312 q 356 278 305 288 l 373 278 l 399 189 l 431 231 l 407 0 q 373 153 391 125 q 296 239 339 210 q 254 254 272 254 q 203 237 229 254 q 254 339 254 305 q 176 397 254 397 q 153 390 170 397 q 197 468 186 424 m 685 468 q 729 390 695 424 q 705 397 712 397 q 627 339 627 397 q 678 237 627 305 q 627 254 652 254 q 587 237 610 254 q 509 153 543 210 q 475 0 492 125 l 451 231 l 481 186 l 509 278 l 526 278 q 576 312 576 288 l 576 322 q 543 380 576 346 l 587 448 l 685 468 m 458 339 l 475 356 l 500 366 l 500 383 l 512 400 l 475 383 l 458 339 m 370 400 l 381 383 l 381 366 l 407 355 l 424 339 l 407 383 l 370 400 z "},"r":{"ha":1119,"x_min":0,"x_max":907,"o":"m 360 949 l 366 949 q 431 842 410 867 l 487 842 q 551 949 499 853 l 557 949 l 557 936 q 509 699 557 837 q 524 683 512 699 l 460 632 l 457 632 l 393 683 q 409 702 393 684 q 360 936 360 833 l 360 949 m 178 939 q 194 866 187 869 q 331 802 325 802 l 342 802 l 355 804 q 350 675 355 790 q 457 597 356 674 l 568 675 q 562 804 562 790 l 576 802 l 587 802 q 732 877 732 866 q 743 939 735 939 q 769 826 764 861 q 670 774 671 777 q 651 729 651 741 q 774 783 766 783 l 774 755 q 627 677 772 749 l 594 613 l 772 710 l 774 705 l 774 648 l 772 648 q 755 654 767 648 q 549 535 555 535 q 557 613 557 576 l 557 629 l 554 629 q 457 570 462 570 q 360 629 365 629 l 360 613 q 368 535 360 576 q 161 654 361 535 q 142 648 151 648 l 142 705 l 145 710 l 323 613 l 323 616 q 269 688 288 688 q 142 755 142 750 l 142 783 q 269 729 153 781 l 269 732 q 226 785 248 785 q 148 829 151 822 q 178 939 171 939 m 428 793 l 428 696 l 490 696 l 490 793 l 428 793 m 901 665 l 907 665 l 885 551 q 863 559 871 559 l 866 554 l 866 511 q 710 279 814 399 q 675 223 675 255 q 576 167 675 204 q 267 40 395 75 q 113 0 123 0 l 111 5 l 111 8 q 339 100 111 14 q 610 312 500 205 q 613 315 610 315 l 635 315 q 665 336 635 336 l 665 353 l 659 360 l 659 363 q 901 665 842 573 m 180 616 l 183 616 q 239 562 239 597 q 288 511 258 511 q 347 484 347 488 q 323 412 347 480 q 342 334 334 375 q 339 331 339 334 q 239 479 317 331 q 180 616 187 591 m 737 616 l 737 613 q 589 336 656 412 l 578 331 l 576 336 q 594 412 584 373 q 570 487 570 479 q 662 527 662 522 q 710 605 688 605 q 737 616 735 616 m 0 610 l 5 610 q 94 490 48 540 q 285 323 260 323 l 457 204 q 371 145 457 200 q 298 178 304 170 l 323 215 l 323 218 q 275 186 321 218 l 269 186 q 239 231 269 204 l 67 449 l 67 479 q 51 509 56 479 q 0 610 28 509 m 404 576 l 457 543 l 514 576 q 524 546 524 558 q 476 374 484 374 l 441 374 q 393 549 433 374 q 404 576 397 568 m 387 471 q 414 357 393 455 l 500 357 q 527 468 506 357 q 530 471 530 468 q 570 409 570 446 q 532 288 546 288 q 484 264 526 288 l 481 269 l 490 334 l 428 334 l 435 267 q 433 264 433 267 q 368 315 368 292 l 347 409 q 387 471 347 446 m 559 145 q 899 8 833 8 l 899 3 q 541 92 814 3 q 524 108 541 108 q 503 102 515 102 q 495 111 499 102 q 559 145 551 145 z "},"s":{"ha":949,"x_min":-1,"x_max":753,"o":"m 452 927 q 433 951 437 936 q 398 936 426 945 q 332 887 332 913 q 338 867 332 876 q 344 848 344 857 q 317 805 344 836 q 284 745 290 772 q 279 709 279 728 q 291 639 279 688 q 324 694 322 639 q 344 650 344 694 q 320 612 344 642 q 296 563 296 583 q 311 522 296 543 q 326 484 326 500 q 323 467 326 479 q 337 494 337 467 q 330 523 337 505 q 323 555 323 541 q 367 619 323 576 q 404 669 382 636 q 392 688 404 686 q 370 674 379 688 q 425 747 370 722 l 425 766 q 362 798 363 770 l 362 800 q 382 827 362 817 q 416 841 406 840 q 407 813 407 827 q 411 800 407 804 q 465 787 418 787 q 450 751 450 770 q 474 732 450 732 q 444 677 474 703 q 414 644 414 652 q 457 663 437 644 q 414 593 457 621 q 370 552 370 564 l 374 505 q 441 572 405 553 l 441 522 q 414 472 414 496 q 432 429 414 429 q 497 505 497 454 l 474 505 l 474 530 q 507 536 501 530 q 512 547 511 540 q 517 559 513 554 q 532 568 522 565 q 541 577 541 571 q 521 601 541 601 q 512 588 515 601 q 500 575 509 575 q 468 610 468 575 q 486 604 472 604 q 520 625 517 604 q 544 702 520 662 q 576 737 566 737 l 571 704 q 591 661 571 674 q 559 633 559 641 q 569 599 559 611 q 609 639 572 610 q 623 662 623 650 q 609 689 623 673 q 631 714 628 695 q 658 661 658 699 q 595 587 658 636 l 598 543 q 667 631 642 576 l 675 619 q 669 601 669 613 q 680 578 669 578 q 695 610 690 578 l 690 629 q 684 650 684 642 q 701 701 684 673 q 653 718 669 701 q 641 747 641 731 q 654 777 641 760 q 603 772 631 777 q 562 766 574 766 q 539 779 550 766 q 528 803 528 791 q 547 846 528 829 q 578 871 576 871 q 541 882 572 878 q 557 929 541 911 q 387 866 423 897 q 452 927 401 911 m 209 340 l 236 339 l 267 89 l 235 108 l 209 340 m 212 121 l 183 139 l 171 243 l 124 243 l 115 262 l 168 262 l 157 365 l 187 336 l 212 121 m 484 108 l 452 89 l 483 339 l 510 340 l 484 108 m 533 336 l 564 365 l 553 262 l 604 262 l 596 243 l 548 243 l 537 139 l 508 121 l 533 336 m 92 714 q 105 683 94 699 q 115 663 115 669 q 111 644 115 656 q 106 624 106 631 q 149 644 149 624 q 142 663 149 652 q 134 682 134 673 q 157 732 135 682 q 170 688 170 717 q 168 637 170 649 q 115 590 164 623 q 134 512 115 512 q 127 539 127 525 q 195 585 127 581 q 189 642 195 631 q 228 628 204 642 q 254 597 254 612 q 229 577 254 586 q 205 554 205 568 q 232 534 205 539 q 259 521 259 528 q 236 509 259 514 q 214 502 214 504 q 237 480 214 501 q 259 446 259 460 q 252 440 259 440 q 198 460 241 440 l 181 418 l 217 380 l 283 380 l 331 51 l 291 75 l 258 357 l 208 361 l 174 397 l 108 400 l 115 416 l 157 422 l 176 458 l 127 478 l 77 420 l 92 327 l 143 327 l 136 311 l 95 311 l 109 199 l 160 166 l 160 152 l 70 205 l 52 429 l 109 485 q 89 515 109 492 q 69 575 69 538 q 79 621 69 608 q 88 639 88 633 q 83 657 88 648 q 77 669 77 667 q 83 689 77 677 q 92 714 90 704 m 519 465 q 528 481 528 472 l 528 486 q 502 463 510 486 q 484 427 492 433 q 420 408 458 408 q 384 380 384 408 l 412 380 l 360 0 l 308 380 l 336 380 q 330 406 336 395 q 324 422 324 416 q 344 439 324 439 l 344 448 l 310 448 q 314 436 310 443 q 318 422 318 430 q 292 395 318 395 q 229 420 261 395 q 267 431 256 420 q 284 490 284 446 q 230 763 284 703 q 192 745 223 745 q 184 778 191 758 q 178 808 178 797 q 194 857 178 827 q 160 819 180 852 q 115 776 136 776 q 98 802 98 776 q 86 770 86 796 q 54 717 86 749 q 22 656 22 686 q 55 608 22 623 l 50 584 q -1 653 -1 630 q 42 734 -1 704 l 41 734 q 77 810 41 738 q 115 840 89 831 q 111 825 111 830 q 127 808 111 808 q 176 865 128 808 q 234 890 197 890 q 196 814 203 870 q 205 776 196 799 l 224 790 q 255 800 238 800 q 302 817 283 800 q 321 853 321 836 q 316 870 321 858 q 311 891 311 882 q 408 956 311 917 q 430 989 412 958 q 474 1019 446 1015 q 446 976 446 1000 q 459 943 446 957 q 490 929 472 929 q 534 940 506 929 q 589 951 563 951 q 562 897 562 928 q 605 876 603 878 q 581 852 597 866 q 557 828 564 836 q 551 810 551 820 q 573 785 551 785 q 630 804 596 785 q 696 823 664 823 q 737 803 722 823 q 665 755 665 790 q 699 721 665 721 q 753 739 732 721 q 730 699 753 724 q 707 661 713 680 q 715 622 707 639 l 722 606 l 707 584 q 692 550 695 565 q 610 485 610 522 l 668 429 l 649 205 l 559 152 l 559 166 l 610 199 l 625 311 l 584 311 l 578 327 l 629 327 l 643 420 l 591 478 l 544 458 l 564 422 l 604 416 l 611 400 l 546 397 l 512 361 l 463 357 l 430 75 l 389 51 l 437 380 l 503 380 l 540 418 l 519 465 z "},"t":{"ha":983,"x_min":0,"x_max":777,"o":"m 389 546 l 230 821 l 298 934 l 367 821 l 410 821 l 478 934 l 547 821 l 389 546 m 350 701 l 389 633 l 427 701 l 350 701 m 375 0 l 375 218 l 347 218 l 347 7 q 319 22 332 13 l 319 218 l 292 218 l 292 47 q 274 75 282 59 q 248 136 262 96 q 222 197 233 176 q 73 344 182 272 l 0 949 l 126 749 l 248 749 l 292 672 l 204 672 l 220 644 l 308 644 l 333 601 l 245 601 l 261 573 l 349 573 l 389 505 l 428 573 l 515 573 l 531 601 l 444 601 l 469 644 l 557 644 l 572 672 l 484 672 l 529 749 l 650 749 l 777 949 l 703 344 q 555 197 594 272 q 528 136 543 176 q 503 75 514 96 q 484 47 494 59 l 484 218 l 457 218 l 457 22 q 429 7 445 13 l 429 218 l 401 218 l 401 0 l 375 0 m 380 368 l 146 442 l 262 313 l 308 363 l 375 342 l 401 342 l 469 363 l 515 313 l 630 442 l 397 368 l 380 368 z "},"u":{"ha":1492,"x_min":0,"x_max":1288,"o":"m 691 777 l 596 777 l 644 665 l 691 777 m 691 810 l 806 899 l 806 947 l 924 801 l 644 614 l 363 801 l 481 947 l 481 899 l 596 810 l 691 810 m 1107 281 q 644 0 862 189 q 180 281 426 189 l 197 422 l 265 452 l 265 633 l 96 485 l 76 308 l 0 562 l 261 787 l 295 836 q 315 777 315 781 l 596 586 l 621 366 l 339 389 l 535 235 l 574 321 l 623 321 l 644 208 l 665 321 l 713 321 l 753 235 l 949 389 l 667 366 l 691 586 l 972 777 q 992 836 972 781 l 1026 787 l 1288 562 l 1212 308 l 1192 485 l 1022 633 l 1022 452 l 1091 422 l 1107 281 z "},"v":{"ha":1798,"x_min":3,"x_max":1598,"o":"m 802 415 q 884 448 851 415 q 918 531 918 481 q 884 612 918 579 q 802 646 850 646 q 720 612 753 646 q 686 531 686 579 q 720 448 686 482 q 802 415 753 415 m 802 255 l 545 428 l 574 531 l 200 864 l 623 661 l 555 947 l 705 726 l 802 830 l 899 726 l 1048 947 l 981 661 l 1404 864 l 1029 531 l 1059 428 l 802 255 m 802 0 l 627 163 l 722 203 l 3 531 l 542 531 l 511 416 l 802 218 l 1091 416 l 1061 531 l 1598 531 l 880 203 l 976 163 l 802 0 z "},"w":{"ha":1017,"x_min":0,"x_max":807,"o":"m 404 950 q 585 721 532 867 l 404 566 l 221 726 q 404 950 279 871 m 0 854 l 7 854 q 404 543 172 760 q 799 854 635 760 l 807 854 q 465 450 477 515 l 427 380 l 404 376 q 365 411 365 379 q 113 737 321 518 l 0 854 m 159 628 l 170 628 q 357 387 229 628 q 283 372 347 379 q 132 465 151 372 l 124 524 q 159 628 132 619 m 636 628 l 648 628 q 683 524 672 628 q 597 384 683 402 l 524 372 q 450 387 460 379 q 636 628 578 628 m 148 404 q 248 365 200 365 l 330 365 q 391 372 375 365 l 396 369 l 396 272 l 391 0 l 384 0 q 260 272 326 170 q 152 387 152 370 l 148 404 m 659 404 l 659 396 q 547 272 659 373 q 423 0 481 170 l 415 0 l 411 272 l 411 365 l 415 369 l 415 372 q 477 365 432 365 l 559 365 q 659 404 607 365 m 213 302 q 260 248 248 275 q 167 163 182 202 l 159 163 l 155 182 l 155 209 q 213 302 155 254 m 593 302 q 652 209 652 254 l 652 182 l 648 163 l 640 163 q 547 248 625 202 q 593 302 559 275 z "},"x":{"ha":2035,"x_min":0,"x_max":1660,"o":"m 1656 949 l 1660 940 q 1656 812 1660 925 l 1208 558 q 1204 562 1208 562 q 1234 707 1223 707 q 1656 949 1649 949 m 9 945 q 431 699 421 707 q 448 562 431 666 q 444 558 444 562 q 4 812 41 785 q 0 940 4 827 l 9 945 m 711 830 l 720 830 q 786 699 720 822 l 869 699 q 940 821 876 700 l 945 821 l 945 817 q 883 483 896 483 l 830 435 l 826 435 q 755 518 755 493 q 711 830 720 753 m 444 795 q 523 711 510 711 q 703 646 703 661 q 707 602 703 603 l 699 597 q 532 646 551 646 q 597 597 532 597 q 711 553 711 561 l 716 523 q 711 518 711 523 l 549 567 l 549 562 q 597 518 549 518 q 777 431 743 477 q 826 382 777 425 q 988 492 937 490 l 1112 523 l 1112 562 q 945 518 955 518 l 940 527 l 940 545 q 1124 606 940 557 l 1124 642 q 953 597 1006 606 l 953 606 q 1002 667 953 667 q 1168 738 1168 709 q 1213 791 1208 791 l 1217 791 l 1168 479 q 826 0 1131 433 l 821 0 q 475 514 475 492 l 444 795 m 1656 777 l 1660 768 q 1656 642 1660 754 l 1195 378 l 1190 387 l 1190 426 l 1177 444 l 1177 448 q 1204 518 1193 473 q 1656 777 1648 777 m 9 773 q 452 514 452 519 q 470 439 470 447 q 457 426 464 439 l 457 382 l 452 382 q 4 642 44 610 q 0 768 4 656 l 9 773 m 791 642 q 826 523 826 530 q 865 642 836 523 l 791 642 m 1656 602 l 1660 593 q 1656 466 1660 578 l 1177 193 q 1173 197 1177 197 q 1213 347 1173 347 q 1656 602 1636 595 m 9 597 q 466 330 458 340 l 475 197 l 466 197 q 4 466 6 458 q 0 593 4 480 l 9 597 m 562 439 q 734 255 686 297 q 782 369 782 362 l 562 439 m 869 356 q 918 255 918 262 q 1085 431 1036 369 q 869 360 871 368 l 869 356 m 479 417 l 483 417 q 768 4 486 417 l 768 0 l 764 0 q 500 123 512 111 q 479 417 500 136 m 1168 413 l 1173 413 q 1146 114 1146 178 q 883 4 970 35 l 883 9 q 1168 413 1156 406 z "},"y":{"ha":848,"x_min":0,"x_max":642,"o":"m 376 1015 l 381 1010 l 385 1010 q 359 972 369 974 l 296 972 q 271 1010 287 974 l 275 1015 l 376 1015 m 296 964 l 355 964 l 364 956 l 364 833 l 355 824 l 296 824 l 288 833 l 288 956 l 296 964 m 334 812 q 541 762 444 812 l 541 757 q 478 690 524 690 q 321 626 416 659 q 123 715 140 699 l 106 765 q 334 812 196 812 m 4 787 l 34 782 l 76 782 q 111 693 85 782 q 245 626 245 646 l 258 508 l 212 508 l 131 504 q 29 596 29 562 l 0 782 l 4 787 m 570 779 l 635 779 l 642 770 q 592 553 614 553 l 520 504 l 414 504 q 389 516 393 504 q 435 651 396 651 q 545 718 545 685 q 570 779 562 779 m 254 736 q 321 693 261 721 q 393 727 334 693 l 393 736 l 351 749 l 292 749 l 254 736 m 68 681 l 68 668 q 203 605 94 646 l 203 618 q 68 681 184 635 m 444 622 l 444 600 l 579 664 l 579 681 l 444 622 m 76 626 l 76 613 q 216 545 76 602 l 216 550 q 140 596 216 570 l 76 626 m 266 626 l 271 626 l 330 605 l 381 626 l 385 622 l 359 486 l 364 482 l 364 473 l 359 456 l 364 439 l 359 439 l 364 435 l 364 351 q 385 131 364 273 l 330 0 l 317 0 q 262 143 262 128 q 283 368 283 264 l 283 478 l 266 626 m 431 545 l 435 545 q 567 609 567 598 l 570 622 l 567 622 q 431 545 431 572 m 42 541 q 106 444 106 513 q 182 397 180 407 l 182 186 q 55 250 55 222 l 37 536 l 42 541 m 596 536 l 605 528 q 575 233 587 233 l 465 186 l 461 186 l 461 359 q 499 418 461 418 q 545 465 545 446 q 596 536 545 508 m 262 448 l 266 444 l 266 317 q 237 157 254 157 l 199 177 l 199 397 q 262 448 218 420 m 389 448 l 444 402 l 444 177 q 402 157 444 168 q 381 330 381 259 l 381 439 l 389 448 z "},"z":{"ha":1153,"x_min":0,"x_max":1051,"o":"m 624 834 l 572 572 l 523 526 l 469 572 l 416 834 l 475 733 l 565 733 l 624 834 m 803 831 l 772 547 l 523 186 l 269 547 l 237 831 l 289 739 l 388 696 l 404 639 l 298 678 l 306 652 l 412 608 l 425 574 l 313 623 l 321 599 l 431 551 l 520 469 l 609 551 l 720 599 l 727 623 l 616 574 l 629 608 l 734 652 l 742 678 l 638 639 l 653 696 l 751 739 l 803 831 m 760 471 l 730 265 l 574 193 l 760 471 m 466 193 l 311 265 l 281 471 l 466 193 m 551 680 l 492 680 l 523 623 l 551 680 m 709 511 l 551 443 l 587 376 l 709 511 m 492 443 l 331 511 l 454 376 l 492 443 m 790 526 l 824 831 q 810 853 822 853 q 797 848 805 853 l 729 746 l 614 695 l 644 841 q 627 858 637 858 q 610 848 619 858 l 543 746 l 526 746 l 526 1034 q 166 885 315 1034 q 17 526 17 736 l 261 526 l 302 254 l 475 176 l 500 176 l 526 163 l 526 17 q 885 166 736 17 q 1034 526 1034 315 l 790 526 m 897 154 q 820 77 897 154 q 526 0 743 0 q 154 154 308 0 q 0 526 0 308 q 154 897 0 743 q 526 1051 308 1051 q 897 897 743 1051 q 1051 526 1051 743 q 897 154 1051 308 z "},"{":{"ha":1119,"x_min":0,"x_max":1017,"o":"m 136 0 q 0 136 0 0 l 0 882 q 136 1017 0 1017 l 882 1017 q 1017 882 1017 1017 l 1017 136 q 882 0 1017 0 l 136 0 m 882 17 q 1000 136 1000 17 l 1000 882 q 882 1000 1000 1000 l 136 1000 q 17 882 18 1000 l 17 136 q 136 17 18 17 l 882 17 z "},"|":{"ha":1119,"x_min":0,"x_max":1017,"o":"m 136 0 q 0 136 0 0 l 0 882 q 136 1017 0 1017 l 882 1017 q 1017 882 1017 1017 l 1017 136 q 882 0 1017 0 l 136 0 m 882 17 q 1000 136 1000 17 l 1000 882 q 882 1000 1000 1000 l 136 1000 q 17 882 18 1000 l 17 136 q 136 17 18 17 l 882 17 z "},"}":{"ha":1119,"x_min":0,"x_max":1017,"o":"m 136 0 q 0 136 0 0 l 0 882 q 136 1017 0 1017 l 882 1017 q 1017 882 1017 1017 l 1017 136 q 882 0 1017 0 l 136 0 m 882 17 q 1000 136 1000 17 l 1000 882 q 882 1000 1000 1000 l 136 1000 q 17 882 18 1000 l 17 136 q 136 17 18 17 l 882 17 z "},"~":{"ha":1221,"x_min":0,"x_max":1091,"o":"m 631 949 l 768 949 q 776 937 776 949 l 699 594 l 695 590 l 691 590 q 562 643 622 643 l 542 643 q 388 578 471 643 l 384 578 l 355 707 q 433 731 433 716 l 433 739 q 412 755 430 748 l 355 751 l 351 751 q 339 776 343 751 l 343 780 l 425 780 q 457 800 454 780 l 453 812 l 376 812 l 335 808 l 327 833 l 339 841 l 380 841 q 420 869 420 841 l 404 881 l 388 881 l 351 877 l 339 881 l 323 877 q 307 937 307 907 l 311 941 l 315 941 l 461 945 q 517 873 477 899 l 517 841 l 513 837 l 517 833 l 513 812 l 513 707 q 538 679 513 679 q 562 743 562 679 l 562 861 l 566 865 l 562 869 l 562 873 q 610 945 604 924 l 631 949 m 553 614 q 703 489 658 614 l 707 449 q 582 298 707 343 l 542 294 q 392 420 437 294 l 388 461 q 513 610 388 566 l 553 614 m 351 526 l 355 522 l 351 453 q 501 258 351 331 l 505 254 q 404 170 480 224 l 368 218 l 351 222 l 347 222 l 335 210 l 368 146 l 368 138 l 351 125 q 286 214 298 214 l 278 214 q 271 202 271 214 l 323 102 l 307 90 l 302 90 l 262 150 l 246 154 q 231 130 231 150 l 271 61 q 218 20 235 20 l 150 146 l 150 158 q 182 210 173 181 l 178 214 l 178 218 q 339 307 178 237 l 351 331 q 327 351 343 351 q 146 274 166 274 l 102 286 l 85 282 l 81 282 q 0 429 46 321 q 351 526 21 441 m 747 526 l 865 485 l 865 477 q 845 433 865 463 l 845 412 l 857 400 l 865 400 q 909 465 872 400 l 922 465 l 933 453 q 889 368 889 383 l 889 355 l 897 347 l 901 347 q 962 445 926 365 l 978 445 l 990 433 q 958 363 958 378 q 970 347 964 347 l 982 347 l 1035 425 l 1091 400 l 1010 267 l 982 271 l 966 271 l 925 258 l 768 355 q 747 339 749 348 l 747 327 q 905 214 764 304 q 937 138 907 186 q 852 0 876 26 l 848 0 l 590 250 l 590 254 l 671 302 q 743 473 743 374 l 739 522 l 743 526 l 747 526 z "},"":{"ha":1119,"x_min":0,"x_max":1017,"o":"m 136 0 q 0 136 0 0 l 0 882 q 136 1017 0 1017 l 882 1017 q 1017 882 1017 1017 l 1017 136 q 882 0 1017 0 l 136 0 m 882 17 q 1000 136 1000 17 l 1000 882 q 882 1000 1000 1000 l 136 1000 q 17 882 18 1000 l 17 136 q 136 17 18 17 l 882 17 z "},"":{"ha":1119,"x_min":0,"x_max":1017,"o":"m 136 0 q 0 136 0 0 l 0 882 q 136 1017 0 1017 l 882 1017 q 1017 882 1017 1017 l 1017 136 q 882 0 1017 0 l 136 0 m 882 17 q 1000 136 1000 17 l 1000 882 q 882 1000 1000 1000 l 136 1000 q 17 882 18 1000 l 17 136 q 136 17 18 17 l 882 17 z "},"":{"ha":1119,"x_min":0,"x_max":1017,"o":"m 136 0 q 0 136 0 0 l 0 882 q 136 1017 0 1017 l 882 1017 q 1017 882 1017 1017 l 1017 136 q 882 0 1017 0 l 136 0 m 882 17 q 1000 136 1000 17 l 1000 882 q 882 1000 1000 1000 l 136 1000 q 17 882 18 1000 l 17 136 q 136 17 18 17 l 882 17 z "},"":{"ha":1119,"x_min":0,"x_max":1017,"o":"m 136 0 q 0 136 0 0 l 0 882 q 136 1017 0 1017 l 882 1017 q 1017 882 1017 1017 l 1017 136 q 882 0 1017 0 l 136 0 m 882 17 q 1000 136 1000 17 l 1000 882 q 882 1000 1000 1000 l 136 1000 q 17 882 18 1000 l 17 136 q 136 17 18 17 l 882 17 z "},"":{"ha":1119,"x_min":0,"x_max":1017,"o":"m 136 0 q 0 136 0 0 l 0 882 q 136 1017 0 1017 l 882 1017 q 1017 882 1017 1017 l 1017 136 q 882 0 1017 0 l 136 0 m 882 17 q 1000 136 1000 17 l 1000 882 q 882 1000 1000 1000 l 136 1000 q 17 882 18 1000 l 17 136 q 136 17 18 17 l 882 17 z "},"":{"ha":1119,"x_min":0,"x_max":1017,"o":"m 136 0 q 0 136 0 0 l 0 882 q 136 1017 0 1017 l 882 1017 q 1017 882 1017 1017 l 1017 136 q 882 0 1017 0 l 136 0 m 882 17 q 1000 136 1000 17 l 1000 882 q 882 1000 1000 1000 l 136 1000 q 17 882 18 1000 l 17 136 q 136 17 18 17 l 882 17 z "},"":{"ha":1119,"x_min":0,"x_max":1017,"o":"m 136 0 q 0 136 0 0 l 0 882 q 136 1017 0 1017 l 882 1017 q 1017 882 1017 1017 l 1017 136 q 882 0 1017 0 l 136 0 m 882 17 q 1000 136 1000 17 l 1000 882 q 882 1000 1000 1000 l 136 1000 q 17 882 18 1000 l 17 136 q 136 17 18 17 l 882 17 z "},"":{"ha":1119,"x_min":0,"x_max":1017,"o":"m 136 0 q 0 136 0 0 l 0 882 q 136 1017 0 1017 l 882 1017 q 1017 882 1017 1017 l 1017 136 q 882 0 1017 0 l 136 0 m 882 17 q 1000 136 1000 17 l 1000 882 q 882 1000 1000 1000 l 136 1000 q 17 882 18 1000 l 17 136 q 136 17 18 17 l 882 17 z "},"":{"ha":1119,"x_min":0,"x_max":1017,"o":"m 136 0 q 0 136 0 0 l 0 882 q 136 1017 0 1017 l 882 1017 q 1017 882 1017 1017 l 1017 136 q 882 0 1017 0 l 136 0 m 882 17 q 1000 136 1000 17 l 1000 882 q 882 1000 1000 1000 l 136 1000 q 17 882 18 1000 l 17 136 q 136 17 18 17 l 882 17 z "},"":{"ha":1119,"x_min":0,"x_max":1017,"o":"m 136 0 q 0 136 0 0 l 0 882 q 136 1017 0 1017 l 882 1017 q 1017 882 1017 1017 l 1017 136 q 882 0 1017 0 l 136 0 m 882 17 q 1000 136 1000 17 l 1000 882 q 882 1000 1000 1000 l 136 1000 q 17 882 18 1000 l 17 136 q 136 17 18 17 l 882 17 z "},"":{"ha":1119,"x_min":0,"x_max":1017,"o":"m 136 0 q 0 136 0 0 l 0 882 q 136 1017 0 1017 l 882 1017 q 1017 882 1017 1017 l 1017 136 q 882 0 1017 0 l 136 0 m 882 17 q 1000 136 1000 17 l 1000 882 q 882 1000 1000 1000 l 136 1000 q 17 882 18 1000 l 17 136 q 136 17 18 17 l 882 17 z "},"":{"ha":1119,"x_min":0,"x_max":1017,"o":"m 136 0 q 0 136 0 0 l 0 882 q 136 1017 0 1017 l 882 1017 q 1017 882 1017 1017 l 1017 136 q 882 0 1017 0 l 136 0 m 882 17 q 1000 136 1000 17 l 1000 882 q 882 1000 1000 1000 l 136 1000 q 17 882 18 1000 l 17 136 q 136 17 18 17 l 882 17 z "},"":{"ha":1119,"x_min":0,"x_max":1017,"o":"m 136 0 q 0 136 0 0 l 0 882 q 136 1017 0 1017 l 882 1017 q 1017 882 1017 1017 l 1017 136 q 882 0 1017 0 l 136 0 m 882 17 q 1000 136 1000 17 l 1000 882 q 882 1000 1000 1000 l 136 1000 q 17 882 18 1000 l 17 136 q 136 17 18 17 l 882 17 z "},"":{"ha":1119,"x_min":0,"x_max":1017,"o":"m 136 0 q 0 136 0 0 l 0 882 q 136 1017 0 1017 l 882 1017 q 1017 882 1017 1017 l 1017 136 q 882 0 1017 0 l 136 0 m 882 17 q 1000 136 1000 17 l 1000 882 q 882 1000 1000 1000 l 136 1000 q 17 882 18 1000 l 17 136 q 136 17 18 17 l 882 17 z "},"":{"ha":1119,"x_min":0,"x_max":1017,"o":"m 136 0 q 0 136 0 0 l 0 882 q 136 1017 0 1017 l 882 1017 q 1017 882 1017 1017 l 1017 136 q 882 0 1017 0 l 136 0 m 882 17 q 1000 136 1000 17 l 1000 882 q 882 1000 1000 1000 l 136 1000 q 17 882 18 1000 l 17 136 q 136 17 18 17 l 882 17 z "},"":{"ha":1119,"x_min":0,"x_max":1017,"o":"m 136 0 q 0 136 0 0 l 0 882 q 136 1017 0 1017 l 882 1017 q 1017 882 1017 1017 l 1017 136 q 882 0 1017 0 l 136 0 m 882 17 q 1000 136 1000 17 l 1000 882 q 882 1000 1000 1000 l 136 1000 q 17 882 18 1000 l 17 136 q 136 17 18 17 l 882 17 z "},"":{"ha":1119,"x_min":0,"x_max":1017,"o":"m 136 0 q 0 136 0 0 l 0 882 q 136 1017 0 1017 l 882 1017 q 1017 882 1017 1017 l 1017 136 q 882 0 1017 0 l 136 0 m 882 17 q 1000 136 1000 17 l 1000 882 q 882 1000 1000 1000 l 136 1000 q 17 882 18 1000 l 17 136 q 136 17 18 17 l 882 17 z "},"":{"ha":1119,"x_min":0,"x_max":1017,"o":"m 136 0 q 0 136 0 0 l 0 882 q 136 1017 0 1017 l 882 1017 q 1017 882 1017 1017 l 1017 136 q 882 0 1017 0 l 136 0 m 882 17 q 1000 136 1000 17 l 1000 882 q 882 1000 1000 1000 l 136 1000 q 17 882 18 1000 l 17 136 q 136 17 18 17 l 882 17 z "},"":{"ha":1119,"x_min":0,"x_max":1017,"o":"m 136 0 q 0 136 0 0 l 0 882 q 136 1017 0 1017 l 882 1017 q 1017 882 1017 1017 l 1017 136 q 882 0 1017 0 l 136 0 m 882 17 q 1000 136 1000 17 l 1000 882 q 882 1000 1000 1000 l 136 1000 q 17 882 18 1000 l 17 136 q 136 17 18 17 l 882 17 z "},"":{"ha":1119,"x_min":0,"x_max":1017,"o":"m 136 0 q 0 136 0 0 l 0 882 q 136 1017 0 1017 l 882 1017 q 1017 882 1017 1017 l 1017 136 q 882 0 1017 0 l 136 0 m 882 17 q 1000 136 1000 17 l 1000 882 q 882 1000 1000 1000 l 136 1000 q 17 882 18 1000 l 17 136 q 136 17 18 17 l 882 17 z "},"":{"ha":1119,"x_min":0,"x_max":1017,"o":"m 136 0 q 0 136 0 0 l 0 882 q 136 1017 0 1017 l 882 1017 q 1017 882 1017 1017 l 1017 136 q 882 0 1017 0 l 136 0 m 882 17 q 1000 136 1000 17 l 1000 882 q 882 1000 1000 1000 l 136 1000 q 17 882 18 1000 l 17 136 q 136 17 18 17 l 882 17 z "},"":{"ha":1119,"x_min":0,"x_max":1017,"o":"m 136 0 q 0 136 0 0 l 0 882 q 136 1017 0 1017 l 882 1017 q 1017 882 1017 1017 l 1017 136 q 882 0 1017 0 l 136 0 m 882 17 q 1000 136 1000 17 l 1000 882 q 882 1000 1000 1000 l 136 1000 q 17 882 18 1000 l 17 136 q 136 17 18 17 l 882 17 z "},"":{"ha":1119,"x_min":0,"x_max":1017,"o":"m 136 0 q 0 136 0 0 l 0 882 q 136 1017 0 1017 l 882 1017 q 1017 882 1017 1017 l 1017 136 q 882 0 1017 0 l 136 0 m 882 17 q 1000 136 1000 17 l 1000 882 q 882 1000 1000 1000 l 136 1000 q 17 882 18 1000 l 17 136 q 136 17 18 17 l 882 17 z "},"":{"ha":1119,"x_min":0,"x_max":1017,"o":"m 136 0 q 0 136 0 0 l 0 882 q 136 1017 0 1017 l 882 1017 q 1017 882 1017 1017 l 1017 136 q 882 0 1017 0 l 136 0 m 882 17 q 1000 136 1000 17 l 1000 882 q 882 1000 1000 1000 l 136 1000 q 17 882 18 1000 l 17 136 q 136 17 18 17 l 882 17 z "},"":{"ha":1119,"x_min":0,"x_max":1017,"o":"m 136 0 q 0 136 0 0 l 0 882 q 136 1017 0 1017 l 882 1017 q 1017 882 1017 1017 l 1017 136 q 882 0 1017 0 l 136 0 m 882 17 q 1000 136 1000 17 l 1000 882 q 882 1000 1000 1000 l 136 1000 q 17 882 18 1000 l 17 136 q 136 17 18 17 l 882 17 z "},"":{"ha":1119,"x_min":0,"x_max":1017,"o":"m 136 0 q 0 136 0 0 l 0 882 q 136 1017 0 1017 l 882 1017 q 1017 882 1017 1017 l 1017 136 q 882 0 1017 0 l 136 0 m 882 17 q 1000 136 1000 17 l 1000 882 q 882 1000 1000 1000 l 136 1000 q 17 882 18 1000 l 17 136 q 136 17 18 17 l 882 17 z "},"":{"ha":1119,"x_min":0,"x_max":1017,"o":"m 136 0 q 0 136 0 0 l 0 882 q 136 1017 0 1017 l 882 1017 q 1017 882 1017 1017 l 1017 136 q 882 0 1017 0 l 136 0 m 882 17 q 1000 136 1000 17 l 1000 882 q 882 1000 1000 1000 l 136 1000 q 17 882 18 1000 l 17 136 q 136 17 18 17 l 882 17 z "},"":{"ha":1119,"x_min":0,"x_max":1017,"o":"m 136 0 q 0 136 0 0 l 0 882 q 136 1017 0 1017 l 882 1017 q 1017 882 1017 1017 l 1017 136 q 882 0 1017 0 l 136 0 m 882 17 q 1000 136 1000 17 l 1000 882 q 882 1000 1000 1000 l 136 1000 q 17 882 18 1000 l 17 136 q 136 17 18 17 l 882 17 z "},"":{"ha":1119,"x_min":0,"x_max":1017,"o":"m 136 0 q 0 136 0 0 l 0 882 q 136 1017 0 1017 l 882 1017 q 1017 882 1017 1017 l 1017 136 q 882 0 1017 0 l 136 0 m 882 17 q 1000 136 1000 17 l 1000 882 q 882 1000 1000 1000 l 136 1000 q 17 882 18 1000 l 17 136 q 136 17 18 17 l 882 17 z "},"":{"ha":1119,"x_min":0,"x_max":1017,"o":"m 136 0 q 0 136 0 0 l 0 882 q 136 1017 0 1017 l 882 1017 q 1017 882 1017 1017 l 1017 136 q 882 0 1017 0 l 136 0 m 882 17 q 1000 136 1000 17 l 1000 882 q 882 1000 1000 1000 l 136 1000 q 17 882 18 1000 l 17 136 q 136 17 18 17 l 882 17 z "},"":{"ha":1119,"x_min":0,"x_max":1017,"o":"m 136 0 q 0 136 0 0 l 0 882 q 136 1017 0 1017 l 882 1017 q 1017 882 1017 1017 l 1017 136 q 882 0 1017 0 l 136 0 m 882 17 q 1000 136 1000 17 l 1000 882 q 882 1000 1000 1000 l 136 1000 q 17 882 18 1000 l 17 136 q 136 17 18 17 l 882 17 z "},"":{"ha":1119,"x_min":0,"x_max":1017,"o":"m 136 0 q 0 136 0 0 l 0 882 q 136 1017 0 1017 l 882 1017 q 1017 882 1017 1017 l 1017 136 q 882 0 1017 0 l 136 0 m 882 17 q 1000 136 1000 17 l 1000 882 q 882 1000 1000 1000 l 136 1000 q 17 882 18 1000 l 17 136 q 136 17 18 17 l 882 17 z "},"":{"ha":1119,"x_min":0,"x_max":1017,"o":"m 136 0 q 0 136 0 0 l 0 882 q 136 1017 0 1017 l 882 1017 q 1017 882 1017 1017 l 1017 136 q 882 0 1017 0 l 136 0 m 882 17 q 1000 136 1000 17 l 1000 882 q 882 1000 1000 1000 l 136 1000 q 17 882 18 1000 l 17 136 q 136 17 18 17 l 882 17 z "},"":{"ha":1119,"x_min":0,"x_max":1017,"o":"m 136 0 q 0 136 0 0 l 0 882 q 136 1017 0 1017 l 882 1017 q 1017 882 1017 1017 l 1017 136 q 882 0 1017 0 l 136 0 m 882 17 q 1000 136 1000 17 l 1000 882 q 882 1000 1000 1000 l 136 1000 q 17 882 18 1000 l 17 136 q 136 17 18 17 l 882 17 z "},"":{"ha":1119,"x_min":0,"x_max":1017,"o":"m 136 0 q 0 136 0 0 l 0 882 q 136 1017 0 1017 l 882 1017 q 1017 882 1017 1017 l 1017 136 q 882 0 1017 0 l 136 0 m 882 17 q 1000 136 1000 17 l 1000 882 q 882 1000 1000 1000 l 136 1000 q 17 882 18 1000 l 17 136 q 136 17 18 17 l 882 17 z "},"":{"ha":1119,"x_min":0,"x_max":1017,"o":"m 136 0 q 0 136 0 0 l 0 882 q 136 1017 0 1017 l 882 1017 q 1017 882 1017 1017 l 1017 136 q 882 0 1017 0 l 136 0 m 882 17 q 1000 136 1000 17 l 1000 882 q 882 1000 1000 1000 l 136 1000 q 17 882 18 1000 l 17 136 q 136 17 18 17 l 882 17 z "},"":{"ha":1119,"x_min":0,"x_max":1017,"o":"m 136 0 q 0 136 0 0 l 0 882 q 136 1017 0 1017 l 882 1017 q 1017 882 1017 1017 l 1017 136 q 882 0 1017 0 l 136 0 m 882 17 q 1000 136 1000 17 l 1000 882 q 882 1000 1000 1000 l 136 1000 q 17 882 18 1000 l 17 136 q 136 17 18 17 l 882 17 z "},"":{"ha":1119,"x_min":0,"x_max":1017,"o":"m 136 0 q 0 136 0 0 l 0 882 q 136 1017 0 1017 l 882 1017 q 1017 882 1017 1017 l 1017 136 q 882 0 1017 0 l 136 0 m 882 17 q 1000 136 1000 17 l 1000 882 q 882 1000 1000 1000 l 136 1000 q 17 882 18 1000 l 17 136 q 136 17 18 17 l 882 17 z "},"":{"ha":1119,"x_min":0,"x_max":1017,"o":"m 136 0 q 0 136 0 0 l 0 882 q 136 1017 0 1017 l 882 1017 q 1017 882 1017 1017 l 1017 136 q 882 0 1017 0 l 136 0 m 882 17 q 1000 136 1000 17 l 1000 882 q 882 1000 1000 1000 l 136 1000 q 17 882 18 1000 l 17 136 q 136 17 18 17 l 882 17 z "},"":{"ha":1119,"x_min":0,"x_max":1017,"o":"m 136 0 q 0 136 0 0 l 0 882 q 136 1017 0 1017 l 882 1017 q 1017 882 1017 1017 l 1017 136 q 882 0 1017 0 l 136 0 m 882 17 q 1000 136 1000 17 l 1000 882 q 882 1000 1000 1000 l 136 1000 q 17 882 18 1000 l 17 136 q 136 17 18 17 l 882 17 z "},"":{"ha":1119,"x_min":0,"x_max":1017,"o":"m 136 0 q 0 136 0 0 l 0 882 q 136 1017 0 1017 l 882 1017 q 1017 882 1017 1017 l 1017 136 q 882 0 1017 0 l 136 0 m 882 17 q 1000 136 1000 17 l 1000 882 q 882 1000 1000 1000 l 136 1000 q 17 882 18 1000 l 17 136 q 136 17 18 17 l 882 17 z "},"":{"ha":1119,"x_min":0,"x_max":1017,"o":"m 136 0 q 0 136 0 0 l 0 882 q 136 1017 0 1017 l 882 1017 q 1017 882 1017 1017 l 1017 136 q 882 0 1017 0 l 136 0 m 882 17 q 1000 136 1000 17 l 1000 882 q 882 1000 1000 1000 l 136 1000 q 17 882 18 1000 l 17 136 q 136 17 18 17 l 882 17 z "},"":{"ha":1119,"x_min":0,"x_max":1017,"o":"m 136 0 q 0 136 0 0 l 0 882 q 136 1017 0 1017 l 882 1017 q 1017 882 1017 1017 l 1017 136 q 882 0 1017 0 l 136 0 m 882 17 q 1000 136 1000 17 l 1000 882 q 882 1000 1000 1000 l 136 1000 q 17 882 18 1000 l 17 136 q 136 17 18 17 l 882 17 z "},"":{"ha":1119,"x_min":0,"x_max":1017,"o":"m 136 0 q 0 136 0 0 l 0 882 q 136 1017 0 1017 l 882 1017 q 1017 882 1017 1017 l 1017 136 q 882 0 1017 0 l 136 0 m 882 17 q 1000 136 1000 17 l 1000 882 q 882 1000 1000 1000 l 136 1000 q 17 882 18 1000 l 17 136 q 136 17 18 17 l 882 17 z "},"":{"ha":1119,"x_min":0,"x_max":1017,"o":"m 136 0 q 0 136 0 0 l 0 882 q 136 1017 0 1017 l 882 1017 q 1017 882 1017 1017 l 1017 136 q 882 0 1017 0 l 136 0 m 882 17 q 1000 136 1000 17 l 1000 882 q 882 1000 1000 1000 l 136 1000 q 17 882 18 1000 l 17 136 q 136 17 18 17 l 882 17 z "},"":{"ha":1119,"x_min":0,"x_max":1017,"o":"m 136 0 q 0 136 0 0 l 0 882 q 136 1017 0 1017 l 882 1017 q 1017 882 1017 1017 l 1017 136 q 882 0 1017 0 l 136 0 m 882 17 q 1000 136 1000 17 l 1000 882 q 882 1000 1000 1000 l 136 1000 q 17 882 18 1000 l 17 136 q 136 17 18 17 l 882 17 z "},"":{"ha":1119,"x_min":0,"x_max":1017,"o":"m 136 0 q 0 136 0 0 l 0 882 q 136 1017 0 1017 l 882 1017 q 1017 882 1017 1017 l 1017 136 q 882 0 1017 0 l 136 0 m 882 17 q 1000 136 1000 17 l 1000 882 q 882 1000 1000 1000 l 136 1000 q 17 882 18 1000 l 17 136 q 136 17 18 17 l 882 17 z "},"":{"ha":1119,"x_min":0,"x_max":1017,"o":"m 136 0 q 0 136 0 0 l 0 882 q 136 1017 0 1017 l 882 1017 q 1017 882 1017 1017 l 1017 136 q 882 0 1017 0 l 136 0 m 882 17 q 1000 136 1000 17 l 1000 882 q 882 1000 1000 1000 l 136 1000 q 17 882 18 1000 l 17 136 q 136 17 18 17 l 882 17 z "},"":{"ha":1119,"x_min":0,"x_max":1017,"o":"m 136 0 q 0 136 0 0 l 0 882 q 136 1017 0 1017 l 882 1017 q 1017 882 1017 1017 l 1017 136 q 882 0 1017 0 l 136 0 m 882 17 q 1000 136 1000 17 l 1000 882 q 882 1000 1000 1000 l 136 1000 q 17 882 18 1000 l 17 136 q 136 17 18 17 l 882 17 z "},"":{"ha":1119,"x_min":0,"x_max":1017,"o":"m 136 0 q 0 136 0 0 l 0 882 q 136 1017 0 1017 l 882 1017 q 1017 882 1017 1017 l 1017 136 q 882 0 1017 0 l 136 0 m 882 17 q 1000 136 1000 17 l 1000 882 q 882 1000 1000 1000 l 136 1000 q 17 882 18 1000 l 17 136 q 136 17 18 17 l 882 17 z "},"":{"ha":1119,"x_min":0,"x_max":1017,"o":"m 136 0 q 0 136 0 0 l 0 882 q 136 1017 0 1017 l 882 1017 q 1017 882 1017 1017 l 1017 136 q 882 0 1017 0 l 136 0 m 882 17 q 1000 136 1000 17 l 1000 882 q 882 1000 1000 1000 l 136 1000 q 17 882 18 1000 l 17 136 q 136 17 18 17 l 882 17 z "},"":{"ha":1119,"x_min":0,"x_max":1017,"o":"m 136 0 q 0 136 0 0 l 0 882 q 136 1017 0 1017 l 882 1017 q 1017 882 1017 1017 l 1017 136 q 882 0 1017 0 l 136 0 m 882 17 q 1000 136 1000 17 l 1000 882 q 882 1000 1000 1000 l 136 1000 q 17 882 18 1000 l 17 136 q 136 17 18 17 l 882 17 z "},"":{"ha":1119,"x_min":0,"x_max":1017,"o":"m 136 0 q 0 136 0 0 l 0 882 q 136 1017 0 1017 l 882 1017 q 1017 882 1017 1017 l 1017 136 q 882 0 1017 0 l 136 0 m 882 17 q 1000 136 1000 17 l 1000 882 q 882 1000 1000 1000 l 136 1000 q 17 882 18 1000 l 17 136 q 136 17 18 17 l 882 17 z "},"":{"ha":1119,"x_min":0,"x_max":1017,"o":"m 136 0 q 0 136 0 0 l 0 882 q 136 1017 0 1017 l 882 1017 q 1017 882 1017 1017 l 1017 136 q 882 0 1017 0 l 136 0 m 882 17 q 1000 136 1000 17 l 1000 882 q 882 1000 1000 1000 l 136 1000 q 17 882 18 1000 l 17 136 q 136 17 18 17 l 882 17 z "},"":{"ha":1119,"x_min":0,"x_max":1017,"o":"m 136 0 q 0 136 0 0 l 0 882 q 136 1017 0 1017 l 882 1017 q 1017 882 1017 1017 l 1017 136 q 882 0 1017 0 l 136 0 m 882 17 q 1000 136 1000 17 l 1000 882 q 882 1000 1000 1000 l 136 1000 q 17 882 18 1000 l 17 136 q 136 17 18 17 l 882 17 z "},"":{"ha":1119,"x_min":0,"x_max":1017,"o":"m 136 0 q 0 136 0 0 l 0 882 q 136 1017 0 1017 l 882 1017 q 1017 882 1017 1017 l 1017 136 q 882 0 1017 0 l 136 0 m 882 17 q 1000 136 1000 17 l 1000 882 q 882 1000 1000 1000 l 136 1000 q 17 882 18 1000 l 17 136 q 136 17 18 17 l 882 17 z "},"":{"ha":1119,"x_min":0,"x_max":1017,"o":"m 136 0 q 0 136 0 0 l 0 882 q 136 1017 0 1017 l 882 1017 q 1017 882 1017 1017 l 1017 136 q 882 0 1017 0 l 136 0 m 882 17 q 1000 136 1000 17 l 1000 882 q 882 1000 1000 1000 l 136 1000 q 17 882 18 1000 l 17 136 q 136 17 18 17 l 882 17 z "},"":{"ha":1119,"x_min":0,"x_max":1017,"o":"m 136 0 q 0 136 0 0 l 0 882 q 136 1017 0 1017 l 882 1017 q 1017 882 1017 1017 l 1017 136 q 882 0 1017 0 l 136 0 m 882 17 q 1000 136 1000 17 l 1000 882 q 882 1000 1000 1000 l 136 1000 q 17 882 18 1000 l 17 136 q 136 17 18 17 l 882 17 z "},"":{"ha":1119,"x_min":0,"x_max":1017,"o":"m 136 0 q 0 136 0 0 l 0 882 q 136 1017 0 1017 l 882 1017 q 1017 882 1017 1017 l 1017 136 q 882 0 1017 0 l 136 0 m 882 17 q 1000 136 1000 17 l 1000 882 q 882 1000 1000 1000 l 136 1000 q 17 882 18 1000 l 17 136 q 136 17 18 17 l 882 17 z "},"":{"ha":1119,"x_min":0,"x_max":1017,"o":"m 136 0 q 0 136 0 0 l 0 882 q 136 1017 0 1017 l 882 1017 q 1017 882 1017 1017 l 1017 136 q 882 0 1017 0 l 136 0 m 882 17 q 1000 136 1000 17 l 1000 882 q 882 1000 1000 1000 l 136 1000 q 17 882 18 1000 l 17 136 q 136 17 18 17 l 882 17 z "},"":{"ha":1119,"x_min":0,"x_max":1017,"o":"m 136 0 q 0 136 0 0 l 0 882 q 136 1017 0 1017 l 882 1017 q 1017 882 1017 1017 l 1017 136 q 882 0 1017 0 l 136 0 m 882 17 q 1000 136 1000 17 l 1000 882 q 882 1000 1000 1000 l 136 1000 q 17 882 18 1000 l 17 136 q 136 17 18 17 l 882 17 z "},"":{"ha":1119,"x_min":0,"x_max":1017,"o":"m 136 0 q 0 136 0 0 l 0 882 q 136 1017 0 1017 l 882 1017 q 1017 882 1017 1017 l 1017 136 q 882 0 1017 0 l 136 0 m 882 17 q 1000 136 1000 17 l 1000 882 q 882 1000 1000 1000 l 136 1000 q 17 882 18 1000 l 17 136 q 136 17 18 17 l 882 17 z "},"":{"ha":1119,"x_min":0,"x_max":1017,"o":"m 136 0 q 0 136 0 0 l 0 882 q 136 1017 0 1017 l 882 1017 q 1017 882 1017 1017 l 1017 136 q 882 0 1017 0 l 136 0 m 882 17 q 1000 136 1000 17 l 1000 882 q 882 1000 1000 1000 l 136 1000 q 17 882 18 1000 l 17 136 q 136 17 18 17 l 882 17 z "},"":{"ha":1119,"x_min":0,"x_max":1017,"o":"m 136 0 q 0 136 0 0 l 0 882 q 136 1017 0 1017 l 882 1017 q 1017 882 1017 1017 l 1017 136 q 882 0 1017 0 l 136 0 m 882 17 q 1000 136 1000 17 l 1000 882 q 882 1000 1000 1000 l 136 1000 q 17 882 18 1000 l 17 136 q 136 17 18 17 l 882 17 z "},"":{"ha":1119,"x_min":0,"x_max":1017,"o":"m 136 0 q 0 136 0 0 l 0 882 q 136 1017 0 1017 l 882 1017 q 1017 882 1017 1017 l 1017 136 q 882 0 1017 0 l 136 0 m 882 17 q 1000 136 1000 17 l 1000 882 q 882 1000 1000 1000 l 136 1000 q 17 882 18 1000 l 17 136 q 136 17 18 17 l 882 17 z "},"":{"ha":1119,"x_min":0,"x_max":1017,"o":"m 136 0 q 0 136 0 0 l 0 882 q 136 1017 0 1017 l 882 1017 q 1017 882 1017 1017 l 1017 136 q 882 0 1017 0 l 136 0 m 882 17 q 1000 136 1000 17 l 1000 882 q 882 1000 1000 1000 l 136 1000 q 17 882 18 1000 l 17 136 q 136 17 18 17 l 882 17 z "},"":{"ha":1119,"x_min":0,"x_max":1017,"o":"m 136 0 q 0 136 0 0 l 0 882 q 136 1017 0 1017 l 882 1017 q 1017 882 1017 1017 l 1017 136 q 882 0 1017 0 l 136 0 m 882 17 q 1000 136 1000 17 l 1000 882 q 882 1000 1000 1000 l 136 1000 q 17 882 18 1000 l 17 136 q 136 17 18 17 l 882 17 z "},"":{"ha":1119,"x_min":0,"x_max":1017,"o":"m 136 0 q 0 136 0 0 l 0 882 q 136 1017 0 1017 l 882 1017 q 1017 882 1017 1017 l 1017 136 q 882 0 1017 0 l 136 0 m 882 17 q 1000 136 1000 17 l 1000 882 q 882 1000 1000 1000 l 136 1000 q 17 882 18 1000 l 17 136 q 136 17 18 17 l 882 17 z "},"":{"ha":1119,"x_min":0,"x_max":1017,"o":"m 136 0 q 0 136 0 0 l 0 882 q 136 1017 0 1017 l 882 1017 q 1017 882 1017 1017 l 1017 136 q 882 0 1017 0 l 136 0 m 882 17 q 1000 136 1000 17 l 1000 882 q 882 1000 1000 1000 l 136 1000 q 17 882 18 1000 l 17 136 q 136 17 18 17 l 882 17 z "},"":{"ha":1119,"x_min":0,"x_max":1017,"o":"m 136 0 q 0 136 0 0 l 0 882 q 136 1017 0 1017 l 882 1017 q 1017 882 1017 1017 l 1017 136 q 882 0 1017 0 l 136 0 m 882 17 q 1000 136 1000 17 l 1000 882 q 882 1000 1000 1000 l 136 1000 q 17 882 18 1000 l 17 136 q 136 17 18 17 l 882 17 z "},"":{"ha":1119,"x_min":0,"x_max":1017,"o":"m 136 0 q 0 136 0 0 l 0 882 q 136 1017 0 1017 l 882 1017 q 1017 882 1017 1017 l 1017 136 q 882 0 1017 0 l 136 0 m 882 17 q 1000 136 1000 17 l 1000 882 q 882 1000 1000 1000 l 136 1000 q 17 882 18 1000 l 17 136 q 136 17 18 17 l 882 17 z "},"":{"ha":1119,"x_min":0,"x_max":1017,"o":"m 136 0 q 0 136 0 0 l 0 882 q 136 1017 0 1017 l 882 1017 q 1017 882 1017 1017 l 1017 136 q 882 0 1017 0 l 136 0 m 882 17 q 1000 136 1000 17 l 1000 882 q 882 1000 1000 1000 l 136 1000 q 17 882 18 1000 l 17 136 q 136 17 18 17 l 882 17 z "},"":{"ha":1119,"x_min":0,"x_max":1017,"o":"m 136 0 q 0 136 0 0 l 0 882 q 136 1017 0 1017 l 882 1017 q 1017 882 1017 1017 l 1017 136 q 882 0 1017 0 l 136 0 m 882 17 q 1000 136 1000 17 l 1000 882 q 882 1000 1000 1000 l 136 1000 q 17 882 18 1000 l 17 136 q 136 17 18 17 l 882 17 z "},"":{"ha":1119,"x_min":0,"x_max":1017,"o":"m 136 0 q 0 136 0 0 l 0 882 q 136 1017 0 1017 l 882 1017 q 1017 882 1017 1017 l 1017 136 q 882 0 1017 0 l 136 0 m 882 17 q 1000 136 1000 17 l 1000 882 q 882 1000 1000 1000 l 136 1000 q 17 882 18 1000 l 17 136 q 136 17 18 17 l 882 17 z "},"":{"ha":1119,"x_min":0,"x_max":1017,"o":"m 136 0 q 0 136 0 0 l 0 882 q 136 1017 0 1017 l 882 1017 q 1017 882 1017 1017 l 1017 136 q 882 0 1017 0 l 136 0 m 882 17 q 1000 136 1000 17 l 1000 882 q 882 1000 1000 1000 l 136 1000 q 17 882 18 1000 l 17 136 q 136 17 18 17 l 882 17 z "},"":{"ha":1119,"x_min":0,"x_max":1017,"o":"m 136 0 q 0 136 0 0 l 0 882 q 136 1017 0 1017 l 882 1017 q 1017 882 1017 1017 l 1017 136 q 882 0 1017 0 l 136 0 m 882 17 q 1000 136 1000 17 l 1000 882 q 882 1000 1000 1000 l 136 1000 q 17 882 18 1000 l 17 136 q 136 17 18 17 l 882 17 z "},"":{"ha":1119,"x_min":0,"x_max":1017,"o":"m 136 0 q 0 136 0 0 l 0 882 q 136 1017 0 1017 l 882 1017 q 1017 882 1017 1017 l 1017 136 q 882 0 1017 0 l 136 0 m 882 17 q 1000 136 1000 17 l 1000 882 q 882 1000 1000 1000 l 136 1000 q 17 882 18 1000 l 17 136 q 136 17 18 17 l 882 17 z "},"":{"ha":1119,"x_min":0,"x_max":1017,"o":"m 136 0 q 0 136 0 0 l 0 882 q 136 1017 0 1017 l 882 1017 q 1017 882 1017 1017 l 1017 136 q 882 0 1017 0 l 136 0 m 882 17 q 1000 136 1000 17 l 1000 882 q 882 1000 1000 1000 l 136 1000 q 17 882 18 1000 l 17 136 q 136 17 18 17 l 882 17 z "},"":{"ha":1119,"x_min":0,"x_max":1017,"o":"m 136 0 q 0 136 0 0 l 0 882 q 136 1017 0 1017 l 882 1017 q 1017 882 1017 1017 l 1017 136 q 882 0 1017 0 l 136 0 m 882 17 q 1000 136 1000 17 l 1000 882 q 882 1000 1000 1000 l 136 1000 q 17 882 18 1000 l 17 136 q 136 17 18 17 l 882 17 z "},"":{"ha":1119,"x_min":0,"x_max":1017,"o":"m 136 0 q 0 136 0 0 l 0 882 q 136 1017 0 1017 l 882 1017 q 1017 882 1017 1017 l 1017 136 q 882 0 1017 0 l 136 0 m 882 17 q 1000 136 1000 17 l 1000 882 q 882 1000 1000 1000 l 136 1000 q 17 882 18 1000 l 17 136 q 136 17 18 17 l 882 17 z "},"":{"ha":1119,"x_min":0,"x_max":1017,"o":"m 136 0 q 0 136 0 0 l 0 882 q 136 1017 0 1017 l 882 1017 q 1017 882 1017 1017 l 1017 136 q 882 0 1017 0 l 136 0 m 882 17 q 1000 136 1000 17 l 1000 882 q 882 1000 1000 1000 l 136 1000 q 17 882 18 1000 l 17 136 q 136 17 18 17 l 882 17 z "},"":{"ha":1119,"x_min":0,"x_max":1017,"o":"m 136 0 q 0 136 0 0 l 0 882 q 136 1017 0 1017 l 882 1017 q 1017 882 1017 1017 l 1017 136 q 882 0 1017 0 l 136 0 m 882 17 q 1000 136 1000 17 l 1000 882 q 882 1000 1000 1000 l 136 1000 q 17 882 18 1000 l 17 136 q 136 17 18 17 l 882 17 z "},"":{"ha":1119,"x_min":0,"x_max":1017,"o":"m 136 0 q 0 136 0 0 l 0 882 q 136 1017 0 1017 l 882 1017 q 1017 882 1017 1017 l 1017 136 q 882 0 1017 0 l 136 0 m 882 17 q 1000 136 1000 17 l 1000 882 q 882 1000 1000 1000 l 136 1000 q 17 882 18 1000 l 17 136 q 136 17 18 17 l 882 17 z "},"":{"ha":1119,"x_min":0,"x_max":1017,"o":"m 136 0 q 0 136 0 0 l 0 882 q 136 1017 0 1017 l 882 1017 q 1017 882 1017 1017 l 1017 136 q 882 0 1017 0 l 136 0 m 882 17 q 1000 136 1000 17 l 1000 882 q 882 1000 1000 1000 l 136 1000 q 17 882 18 1000 l 17 136 q 136 17 18 17 l 882 17 z "},"":{"ha":1119,"x_min":0,"x_max":1017,"o":"m 136 0 q 0 136 0 0 l 0 882 q 136 1017 0 1017 l 882 1017 q 1017 882 1017 1017 l 1017 136 q 882 0 1017 0 l 136 0 m 882 17 q 1000 136 1000 17 l 1000 882 q 882 1000 1000 1000 l 136 1000 q 17 882 18 1000 l 17 136 q 136 17 18 17 l 882 17 z "},"":{"ha":1119,"x_min":0,"x_max":1017,"o":"m 136 0 q 0 136 0 0 l 0 882 q 136 1017 0 1017 l 882 1017 q 1017 882 1017 1017 l 1017 136 q 882 0 1017 0 l 136 0 m 882 17 q 1000 136 1000 17 l 1000 882 q 882 1000 1000 1000 l 136 1000 q 17 882 18 1000 l 17 136 q 136 17 18 17 l 882 17 z "},"":{"ha":1119,"x_min":0,"x_max":1017,"o":"m 136 0 q 0 136 0 0 l 0 882 q 136 1017 0 1017 l 882 1017 q 1017 882 1017 1017 l 1017 136 q 882 0 1017 0 l 136 0 m 882 17 q 1000 136 1000 17 l 1000 882 q 882 1000 1000 1000 l 136 1000 q 17 882 18 1000 l 17 136 q 136 17 18 17 l 882 17 z "},"":{"ha":1119,"x_min":0,"x_max":1017,"o":"m 136 0 q 0 136 0 0 l 0 882 q 136 1017 0 1017 l 882 1017 q 1017 882 1017 1017 l 1017 136 q 882 0 1017 0 l 136 0 m 882 17 q 1000 136 1000 17 l 1000 882 q 882 1000 1000 1000 l 136 1000 q 17 882 18 1000 l 17 136 q 136 17 18 17 l 882 17 z "},"":{"ha":1119,"x_min":0,"x_max":1017,"o":"m 136 0 q 0 136 0 0 l 0 882 q 136 1017 0 1017 l 882 1017 q 1017 882 1017 1017 l 1017 136 q 882 0 1017 0 l 136 0 m 882 17 q 1000 136 1000 17 l 1000 882 q 882 1000 1000 1000 l 136 1000 q 17 882 18 1000 l 17 136 q 136 17 18 17 l 882 17 z "},"":{"ha":1119,"x_min":0,"x_max":1017,"o":"m 136 0 q 0 136 0 0 l 0 882 q 136 1017 0 1017 l 882 1017 q 1017 882 1017 1017 l 1017 136 q 882 0 1017 0 l 136 0 m 882 17 q 1000 136 1000 17 l 1000 882 q 882 1000 1000 1000 l 136 1000 q 17 882 18 1000 l 17 136 q 136 17 18 17 l 882 17 z "},"":{"ha":1119,"x_min":0,"x_max":1017,"o":"m 136 0 q 0 136 0 0 l 0 882 q 136 1017 0 1017 l 882 1017 q 1017 882 1017 1017 l 1017 136 q 882 0 1017 0 l 136 0 m 882 17 q 1000 136 1000 17 l 1000 882 q 882 1000 1000 1000 l 136 1000 q 17 882 18 1000 l 17 136 q 136 17 18 17 l 882 17 z "},"":{"ha":1119,"x_min":0,"x_max":1017,"o":"m 136 0 q 0 136 0 0 l 0 882 q 136 1017 0 1017 l 882 1017 q 1017 882 1017 1017 l 1017 136 q 882 0 1017 0 l 136 0 m 882 17 q 1000 136 1000 17 l 1000 882 q 882 1000 1000 1000 l 136 1000 q 17 882 18 1000 l 17 136 q 136 17 18 17 l 882 17 z "},"":{"ha":1119,"x_min":0,"x_max":1017,"o":"m 136 0 q 0 136 0 0 l 0 882 q 136 1017 0 1017 l 882 1017 q 1017 882 1017 1017 l 1017 136 q 882 0 1017 0 l 136 0 m 882 17 q 1000 136 1000 17 l 1000 882 q 882 1000 1000 1000 l 136 1000 q 17 882 18 1000 l 17 136 q 136 17 18 17 l 882 17 z "},"":{"ha":1119,"x_min":0,"x_max":1017,"o":"m 136 0 q 0 136 0 0 l 0 882 q 136 1017 0 1017 l 882 1017 q 1017 882 1017 1017 l 1017 136 q 882 0 1017 0 l 136 0 m 882 17 q 1000 136 1000 17 l 1000 882 q 882 1000 1000 1000 l 136 1000 q 17 882 18 1000 l 17 136 q 136 17 18 17 l 882 17 z "},"":{"ha":1119,"x_min":0,"x_max":1017,"o":"m 136 0 q 0 136 0 0 l 0 882 q 136 1017 0 1017 l 882 1017 q 1017 882 1017 1017 l 1017 136 q 882 0 1017 0 l 136 0 m 882 17 q 1000 136 1000 17 l 1000 882 q 882 1000 1000 1000 l 136 1000 q 17 882 18 1000 l 17 136 q 136 17 18 17 l 882 17 z "},"":{"ha":1119,"x_min":0,"x_max":1017,"o":"m 136 0 q 0 136 0 0 l 0 882 q 136 1017 0 1017 l 882 1017 q 1017 882 1017 1017 l 1017 136 q 882 0 1017 0 l 136 0 m 882 17 q 1000 136 1000 17 l 1000 882 q 882 1000 1000 1000 l 136 1000 q 17 882 18 1000 l 17 136 q 136 17 18 17 l 882 17 z "},"":{"ha":1119,"x_min":0,"x_max":1017,"o":"m 136 0 q 0 136 0 0 l 0 882 q 136 1017 0 1017 l 882 1017 q 1017 882 1017 1017 l 1017 136 q 882 0 1017 0 l 136 0 m 882 17 q 1000 136 1000 17 l 1000 882 q 882 1000 1000 1000 l 136 1000 q 17 882 18 1000 l 17 136 q 136 17 18 17 l 882 17 z "},"":{"ha":1119,"x_min":0,"x_max":1017,"o":"m 136 0 q 0 136 0 0 l 0 882 q 136 1017 0 1017 l 882 1017 q 1017 882 1017 1017 l 1017 136 q 882 0 1017 0 l 136 0 m 882 17 q 1000 136 1000 17 l 1000 882 q 882 1000 1000 1000 l 136 1000 q 17 882 18 1000 l 17 136 q 136 17 18 17 l 882 17 z "},"":{"ha":1119,"x_min":0,"x_max":1017,"o":"m 136 0 q 0 136 0 0 l 0 882 q 136 1017 0 1017 l 882 1017 q 1017 882 1017 1017 l 1017 136 q 882 0 1017 0 l 136 0 m 882 17 q 1000 136 1000 17 l 1000 882 q 882 1000 1000 1000 l 136 1000 q 17 882 18 1000 l 17 136 q 136 17 18 17 l 882 17 z "},"":{"ha":1119,"x_min":0,"x_max":1017,"o":"m 136 0 q 0 136 0 0 l 0 882 q 136 1017 0 1017 l 882 1017 q 1017 882 1017 1017 l 1017 136 q 882 0 1017 0 l 136 0 m 882 17 q 1000 136 1000 17 l 1000 882 q 882 1000 1000 1000 l 136 1000 q 17 882 18 1000 l 17 136 q 136 17 18 17 l 882 17 z "},"":{"ha":1119,"x_min":0,"x_max":1017,"o":"m 136 0 q 0 136 0 0 l 0 882 q 136 1017 0 1017 l 882 1017 q 1017 882 1017 1017 l 1017 136 q 882 0 1017 0 l 136 0 m 882 17 q 1000 136 1000 17 l 1000 882 q 882 1000 1000 1000 l 136 1000 q 17 882 18 1000 l 17 136 q 136 17 18 17 l 882 17 z "},"":{"ha":1119,"x_min":0,"x_max":1017,"o":"m 136 0 q 0 136 0 0 l 0 882 q 136 1017 0 1017 l 882 1017 q 1017 882 1017 1017 l 1017 136 q 882 0 1017 0 l 136 0 m 882 17 q 1000 136 1000 17 l 1000 882 q 882 1000 1000 1000 l 136 1000 q 17 882 18 1000 l 17 136 q 136 17 18 17 l 882 17 z "},"":{"ha":1119,"x_min":0,"x_max":1017,"o":"m 136 0 q 0 136 0 0 l 0 882 q 136 1017 0 1017 l 882 1017 q 1017 882 1017 1017 l 1017 136 q 882 0 1017 0 l 136 0 m 882 17 q 1000 136 1000 17 l 1000 882 q 882 1000 1000 1000 l 136 1000 q 17 882 18 1000 l 17 136 q 136 17 18 17 l 882 17 z "},"":{"ha":1119,"x_min":0,"x_max":1017,"o":"m 136 0 q 0 136 0 0 l 0 882 q 136 1017 0 1017 l 882 1017 q 1017 882 1017 1017 l 1017 136 q 882 0 1017 0 l 136 0 m 882 17 q 1000 136 1000 17 l 1000 882 q 882 1000 1000 1000 l 136 1000 q 17 882 18 1000 l 17 136 q 136 17 18 17 l 882 17 z "},"":{"ha":1119,"x_min":0,"x_max":1017,"o":"m 136 0 q 0 136 0 0 l 0 882 q 136 1017 0 1017 l 882 1017 q 1017 882 1017 1017 l 1017 136 q 882 0 1017 0 l 136 0 m 882 17 q 1000 136 1000 17 l 1000 882 q 882 1000 1000 1000 l 136 1000 q 17 882 18 1000 l 17 136 q 136 17 18 17 l 882 17 z "},"":{"ha":1119,"x_min":0,"x_max":1017,"o":"m 136 0 q 0 136 0 0 l 0 882 q 136 1017 0 1017 l 882 1017 q 1017 882 1017 1017 l 1017 136 q 882 0 1017 0 l 136 0 m 882 17 q 1000 136 1000 17 l 1000 882 q 882 1000 1000 1000 l 136 1000 q 17 882 18 1000 l 17 136 q 136 17 18 17 l 882 17 z "},"":{"ha":1119,"x_min":0,"x_max":1017,"o":"m 136 0 q 0 136 0 0 l 0 882 q 136 1017 0 1017 l 882 1017 q 1017 882 1017 1017 l 1017 136 q 882 0 1017 0 l 136 0 m 882 17 q 1000 136 1000 17 l 1000 882 q 882 1000 1000 1000 l 136 1000 q 17 882 18 1000 l 17 136 q 136 17 18 17 l 882 17 z "},"":{"ha":1119,"x_min":0,"x_max":1017,"o":"m 136 0 q 0 136 0 0 l 0 882 q 136 1017 0 1017 l 882 1017 q 1017 882 1017 1017 l 1017 136 q 882 0 1017 0 l 136 0 m 882 17 q 1000 136 1000 17 l 1000 882 q 882 1000 1000 1000 l 136 1000 q 17 882 18 1000 l 17 136 q 136 17 18 17 l 882 17 z "},"":{"ha":1119,"x_min":0,"x_max":1017,"o":"m 136 0 q 0 136 0 0 l 0 882 q 136 1017 0 1017 l 882 1017 q 1017 882 1017 1017 l 1017 136 q 882 0 1017 0 l 136 0 m 882 17 q 1000 136 1000 17 l 1000 882 q 882 1000 1000 1000 l 136 1000 q 17 882 18 1000 l 17 136 q 136 17 18 17 l 882 17 z "},"":{"ha":1119,"x_min":0,"x_max":1017,"o":"m 136 0 q 0 136 0 0 l 0 882 q 136 1017 0 1017 l 882 1017 q 1017 882 1017 1017 l 1017 136 q 882 0 1017 0 l 136 0 m 882 17 q 1000 136 1000 17 l 1000 882 q 882 1000 1000 1000 l 136 1000 q 17 882 18 1000 l 17 136 q 136 17 18 17 l 882 17 z "},"":{"ha":1119,"x_min":0,"x_max":1017,"o":"m 136 0 q 0 136 0 0 l 0 882 q 136 1017 0 1017 l 882 1017 q 1017 882 1017 1017 l 1017 136 q 882 0 1017 0 l 136 0 m 882 17 q 1000 136 1000 17 l 1000 882 q 882 1000 1000 1000 l 136 1000 q 17 882 18 1000 l 17 136 q 136 17 18 17 l 882 17 z "},"":{"ha":1119,"x_min":0,"x_max":1017,"o":"m 136 0 q 0 136 0 0 l 0 882 q 136 1017 0 1017 l 882 1017 q 1017 882 1017 1017 l 1017 136 q 882 0 1017 0 l 136 0 m 882 17 q 1000 136 1000 17 l 1000 882 q 882 1000 1000 1000 l 136 1000 q 17 882 18 1000 l 17 136 q 136 17 18 17 l 882 17 z "},"":{"ha":1119,"x_min":0,"x_max":1017,"o":"m 136 0 q 0 136 0 0 l 0 882 q 136 1017 0 1017 l 882 1017 q 1017 882 1017 1017 l 1017 136 q 882 0 1017 0 l 136 0 m 882 17 q 1000 136 1000 17 l 1000 882 q 882 1000 1000 1000 l 136 1000 q 17 882 18 1000 l 17 136 q 136 17 18 17 l 882 17 z "},"":{"ha":1119,"x_min":0,"x_max":1017,"o":"m 136 0 q 0 136 0 0 l 0 882 q 136 1017 0 1017 l 882 1017 q 1017 882 1017 1017 l 1017 136 q 882 0 1017 0 l 136 0 m 882 17 q 1000 136 1000 17 l 1000 882 q 882 1000 1000 1000 l 136 1000 q 17 882 18 1000 l 17 136 q 136 17 18 17 l 882 17 z "},"":{"ha":1119,"x_min":0,"x_max":1017,"o":"m 136 0 q 0 136 0 0 l 0 882 q 136 1017 0 1017 l 882 1017 q 1017 882 1017 1017 l 1017 136 q 882 0 1017 0 l 136 0 m 882 17 q 1000 136 1000 17 l 1000 882 q 882 1000 1000 1000 l 136 1000 q 17 882 18 1000 l 17 136 q 136 17 18 17 l 882 17 z "},"":{"ha":1119,"x_min":0,"x_max":1017,"o":"m 136 0 q 0 136 0 0 l 0 882 q 136 1017 0 1017 l 882 1017 q 1017 882 1017 1017 l 1017 136 q 882 0 1017 0 l 136 0 m 882 17 q 1000 136 1000 17 l 1000 882 q 882 1000 1000 1000 l 136 1000 q 17 882 18 1000 l 17 136 q 136 17 18 17 l 882 17 z "},"":{"ha":1119,"x_min":0,"x_max":1017,"o":"m 136 0 q 0 136 0 0 l 0 882 q 136 1017 0 1017 l 882 1017 q 1017 882 1017 1017 l 1017 136 q 882 0 1017 0 l 136 0 m 882 17 q 1000 136 1000 17 l 1000 882 q 882 1000 1000 1000 l 136 1000 q 17 882 18 1000 l 17 136 q 136 17 18 17 l 882 17 z "},"":{"ha":1119,"x_min":0,"x_max":1017,"o":"m 136 0 q 0 136 0 0 l 0 882 q 136 1017 0 1017 l 882 1017 q 1017 882 1017 1017 l 1017 136 q 882 0 1017 0 l 136 0 m 882 17 q 1000 136 1000 17 l 1000 882 q 882 1000 1000 1000 l 136 1000 q 17 882 18 1000 l 17 136 q 136 17 18 17 l 882 17 z "},"":{"ha":1119,"x_min":0,"x_max":1017,"o":"m 136 0 q 0 136 0 0 l 0 882 q 136 1017 0 1017 l 882 1017 q 1017 882 1017 1017 l 1017 136 q 882 0 1017 0 l 136 0 m 882 17 q 1000 136 1000 17 l 1000 882 q 882 1000 1000 1000 l 136 1000 q 17 882 18 1000 l 17 136 q 136 17 18 17 l 882 17 z "},"":{"ha":1119,"x_min":0,"x_max":1017,"o":"m 136 0 q 0 136 0 0 l 0 882 q 136 1017 0 1017 l 882 1017 q 1017 882 1017 1017 l 1017 136 q 882 0 1017 0 l 136 0 m 882 17 q 1000 136 1000 17 l 1000 882 q 882 1000 1000 1000 l 136 1000 q 17 882 18 1000 l 17 136 q 136 17 18 17 l 882 17 z "},"":{"ha":1119,"x_min":0,"x_max":1017,"o":"m 136 0 q 0 136 0 0 l 0 882 q 136 1017 0 1017 l 882 1017 q 1017 882 1017 1017 l 1017 136 q 882 0 1017 0 l 136 0 m 882 17 q 1000 136 1000 17 l 1000 882 q 882 1000 1000 1000 l 136 1000 q 17 882 18 1000 l 17 136 q 136 17 18 17 l 882 17 z "},"":{"ha":1119,"x_min":0,"x_max":1017,"o":"m 136 0 q 0 136 0 0 l 0 882 q 136 1017 0 1017 l 882 1017 q 1017 882 1017 1017 l 1017 136 q 882 0 1017 0 l 136 0 m 882 17 q 1000 136 1000 17 l 1000 882 q 882 1000 1000 1000 l 136 1000 q 17 882 18 1000 l 17 136 q 136 17 18 17 l 882 17 z "},"":{"ha":1119,"x_min":0,"x_max":1017,"o":"m 136 0 q 0 136 0 0 l 0 882 q 136 1017 0 1017 l 882 1017 q 1017 882 1017 1017 l 1017 136 q 882 0 1017 0 l 136 0 m 882 17 q 1000 136 1000 17 l 1000 882 q 882 1000 1000 1000 l 136 1000 q 17 882 18 1000 l 17 136 q 136 17 18 17 l 882 17 z "},"":{"ha":1119,"x_min":0,"x_max":1017,"o":"m 136 0 q 0 136 0 0 l 0 882 q 136 1017 0 1017 l 882 1017 q 1017 882 1017 1017 l 1017 136 q 882 0 1017 0 l 136 0 m 882 17 q 1000 136 1000 17 l 1000 882 q 882 1000 1000 1000 l 136 1000 q 17 882 18 1000 l 17 136 q 136 17 18 17 l 882 17 z "},"":{"ha":1119,"x_min":0,"x_max":1017,"o":"m 136 0 q 0 136 0 0 l 0 882 q 136 1017 0 1017 l 882 1017 q 1017 882 1017 1017 l 1017 136 q 882 0 1017 0 l 136 0 m 882 17 q 1000 136 1000 17 l 1000 882 q 882 1000 1000 1000 l 136 1000 q 17 882 18 1000 l 17 136 q 136 17 18 17 l 882 17 z "},"":{"ha":1119,"x_min":0,"x_max":1017,"o":"m 136 0 q 0 136 0 0 l 0 882 q 136 1017 0 1017 l 882 1017 q 1017 882 1017 1017 l 1017 136 q 882 0 1017 0 l 136 0 m 882 17 q 1000 136 1000 17 l 1000 882 q 882 1000 1000 1000 l 136 1000 q 17 882 18 1000 l 17 136 q 136 17 18 17 l 882 17 z "},"":{"ha":1119,"x_min":0,"x_max":1017,"o":"m 136 0 q 0 136 0 0 l 0 882 q 136 1017 0 1017 l 882 1017 q 1017 882 1017 1017 l 1017 136 q 882 0 1017 0 l 136 0 m 882 17 q 1000 136 1000 17 l 1000 882 q 882 1000 1000 1000 l 136 1000 q 17 882 18 1000 l 17 136 q 136 17 18 17 l 882 17 z "},"":{"ha":1119,"x_min":0,"x_max":1017,"o":"m 136 0 q 0 136 0 0 l 0 882 q 136 1017 0 1017 l 882 1017 q 1017 882 1017 1017 l 1017 136 q 882 0 1017 0 l 136 0 m 882 17 q 1000 136 1000 17 l 1000 882 q 882 1000 1000 1000 l 136 1000 q 17 882 18 1000 l 17 136 q 136 17 18 17 l 882 17 z "},"":{"ha":1119,"x_min":0,"x_max":1017,"o":"m 136 0 q 0 136 0 0 l 0 882 q 136 1017 0 1017 l 882 1017 q 1017 882 1017 1017 l 1017 136 q 882 0 1017 0 l 136 0 m 882 17 q 1000 136 1000 17 l 1000 882 q 882 1000 1000 1000 l 136 1000 q 17 882 18 1000 l 17 136 q 136 17 18 17 l 882 17 z "},"":{"ha":1119,"x_min":0,"x_max":1017,"o":"m 136 0 q 0 136 0 0 l 0 882 q 136 1017 0 1017 l 882 1017 q 1017 882 1017 1017 l 1017 136 q 882 0 1017 0 l 136 0 m 882 17 q 1000 136 1000 17 l 1000 882 q 882 1000 1000 1000 l 136 1000 q 17 882 18 1000 l 17 136 q 136 17 18 17 l 882 17 z "},"":{"ha":1119,"x_min":0,"x_max":1017,"o":"m 136 0 q 0 136 0 0 l 0 882 q 136 1017 0 1017 l 882 1017 q 1017 882 1017 1017 l 1017 136 q 882 0 1017 0 l 136 0 m 882 17 q 1000 136 1000 17 l 1000 882 q 882 1000 1000 1000 l 136 1000 q 17 882 18 1000 l 17 136 q 136 17 18 17 l 882 17 z "},"":{"ha":1119,"x_min":0,"x_max":1017,"o":"m 136 0 q 0 136 0 0 l 0 882 q 136 1017 0 1017 l 882 1017 q 1017 882 1017 1017 l 1017 136 q 882 0 1017 0 l 136 0 m 882 17 q 1000 136 1000 17 l 1000 882 q 882 1000 1000 1000 l 136 1000 q 17 882 18 1000 l 17 136 q 136 17 18 17 l 882 17 z "},"":{"ha":1119,"x_min":0,"x_max":1017,"o":"m 136 0 q 0 136 0 0 l 0 882 q 136 1017 0 1017 l 882 1017 q 1017 882 1017 1017 l 1017 136 q 882 0 1017 0 l 136 0 m 882 17 q 1000 136 1000 17 l 1000 882 q 882 1000 1000 1000 l 136 1000 q 17 882 18 1000 l 17 136 q 136 17 18 17 l 882 17 z "},"":{"ha":1119,"x_min":0,"x_max":1017,"o":"m 136 0 q 0 136 0 0 l 0 882 q 136 1017 0 1017 l 882 1017 q 1017 882 1017 1017 l 1017 136 q 882 0 1017 0 l 136 0 m 882 17 q 1000 136 1000 17 l 1000 882 q 882 1000 1000 1000 l 136 1000 q 17 882 18 1000 l 17 136 q 136 17 18 17 l 882 17 z "},"":{"ha":1119,"x_min":0,"x_max":1017,"o":"m 136 0 q 0 136 0 0 l 0 882 q 136 1017 0 1017 l 882 1017 q 1017 882 1017 1017 l 1017 136 q 882 0 1017 0 l 136 0 m 882 17 q 1000 136 1000 17 l 1000 882 q 882 1000 1000 1000 l 136 1000 q 17 882 18 1000 l 17 136 q 136 17 18 17 l 882 17 z "},"":{"ha":1119,"x_min":0,"x_max":1017,"o":"m 136 0 q 0 136 0 0 l 0 882 q 136 1017 0 1017 l 882 1017 q 1017 882 1017 1017 l 1017 136 q 882 0 1017 0 l 136 0 m 882 17 q 1000 136 1000 17 l 1000 882 q 882 1000 1000 1000 l 136 1000 q 17 882 18 1000 l 17 136 q 136 17 18 17 l 882 17 z "},"":{"ha":728,"x_min":0,"x_max":0,"o":""},"":{"ha":733,"x_min":0,"x_max":0,"o":""}}}
